<svg width="604" height="600" viewBox="0 0 604 600" fill="none" xmlns="http://www.w3.org/2000/svg">
<path fill-rule="evenodd" clip-rule="evenodd" d="M51.3182 281.83L-69.7498 180.17C-73.0762 177.37 -78.0569 177.81 -80.8376 181.139L-115.403 222.352C-118.202 225.681 -117.762 230.665 -114.435 233.448L-46.6239 290.389C-43.2975 293.19 -42.8576 298.156 -45.6559 301.485L-102.556 369.346C-105.354 372.675 -104.914 377.659 -101.588 380.442L-60.4044 415.033C-57.0781 417.834 -52.0974 417.393 -49.3166 414.065L52.2686 292.908C55.0669 289.579 54.627 284.595 51.3006 281.812L51.3182 281.83Z" fill="#00BFFF"/>
<path d="M463.483 40.8848L433.458 111.362C432.41 113.822 433.553 116.668 436.012 117.717L506.438 147.763C508.896 148.812 511.74 147.668 512.788 145.207L542.812 74.7302C543.861 72.2695 542.717 69.4243 540.258 68.3752L469.833 38.3288C467.374 37.2798 464.531 38.4241 463.483 40.8848Z" fill="#E0ECFF"/>
<path fill-rule="evenodd" clip-rule="evenodd" d="M301.198 11.6886C303.521 9.36379 307.323 9.5047 309.47 11.9881C338.58 45.5223 337.19 96.4402 305.334 128.319C273.479 160.198 222.598 161.589 189.088 132.458C186.607 130.309 186.466 126.487 188.789 124.18L301.198 11.6886Z" fill="#438EFF"/>
<path fill-rule="evenodd" clip-rule="evenodd" d="M-112.904 116.448L-141.275 101.724C-144.654 99.9627 -145.974 95.8062 -144.232 92.407L-98.2965 3.72786C-96.5365 0.346251 -92.383 -0.974689 -88.9863 0.768952L100.509 99.0469C103.888 100.808 105.208 104.965 103.466 108.364L57.5309 197.043C55.771 200.425 51.6174 201.746 48.2207 200.002L19.85 185.278C16.6821 183.64 15.2917 179.836 16.6469 176.524C29.7762 144.241 16.3653 106.638 -15.1557 90.2758C-46.6767 73.9314 -85.1143 84.6398 -103.893 114C-105.829 117.012 -109.719 118.068 -112.887 116.43L-112.904 116.448Z" fill="#B5DBFF"/>
<path fill-rule="evenodd" clip-rule="evenodd" d="M3.41194 455.402L131.52 477.998C137.521 479.055 139.563 486.646 134.917 490.574L7.68866 598.151C3.04235 602.079 -4.08551 598.803 -4.13831 592.709L-5.0183 462.535C-5.0535 458.043 -1.00557 454.627 3.41194 455.402Z" fill="#B5DBFF"/>
<path fill-rule="evenodd" clip-rule="evenodd" d="M87.4327 336.112L104.012 358.656C105.42 360.575 108.13 360.981 110.048 359.572L132.576 342.981C135.673 340.708 139.968 343.298 139.387 347.102L135.181 374.771C134.829 377.131 136.448 379.333 138.789 379.685L166.438 383.894C170.239 384.476 171.436 389.354 168.338 391.644L145.811 408.235C143.892 409.644 143.488 412.356 144.896 414.276L161.475 436.82C163.745 439.92 161.158 444.217 157.356 443.636L129.707 439.427C127.349 439.075 125.149 440.695 124.797 443.037L120.59 470.707C120.01 474.511 115.135 475.709 112.847 472.609L96.2678 450.065C94.8598 448.145 92.1494 447.74 90.2311 449.149L67.7035 465.74C64.606 468.012 60.3116 465.423 60.8924 461.619L65.0988 433.949C65.4507 431.589 63.8316 429.388 61.4908 429.035L33.8418 424.826C30.0402 424.245 28.8435 419.366 31.941 417.076L54.4686 400.485C56.3869 399.076 56.7917 396.364 55.3837 394.444L38.8049 371.9C36.5345 368.8 39.1217 364.503 42.9232 365.084L70.5723 369.294C72.9306 369.646 75.1306 368.026 75.4826 365.683L79.6889 338.014C80.2697 334.209 85.1448 333.012 87.4327 336.112Z" fill="#88DFFF"/>
<path fill-rule="evenodd" clip-rule="evenodd" d="M344.265 311.437L264.89 268.039C261.405 266.137 257.041 267.423 255.14 270.91L105.05 545.912C103.149 549.4 104.434 553.767 107.919 555.67L187.293 599.067C190.778 600.969 195.143 599.683 197.043 596.196L347.133 321.194C349.034 317.707 347.749 313.339 344.265 311.437Z" fill="#438EFF"/>
<path d="M440.535 435.64H290.656C286.69 435.64 283.475 438.857 283.475 442.826V592.814C283.475 596.783 286.69 600 290.656 600H440.535C444.5 600 447.715 596.783 447.715 592.814V442.826C447.715 438.857 444.5 435.64 440.535 435.64Z" fill="#00BFFF"/>
<path fill-rule="evenodd" clip-rule="evenodd" d="M382.702 318.552C414.998 318.552 441.221 344.794 441.221 377.096C441.221 409.397 414.998 435.64 382.702 435.64C350.407 435.64 324.201 409.397 324.201 377.096C324.201 344.794 350.424 318.552 382.702 318.552Z" fill="#E0ECFF"/>
<path fill-rule="evenodd" clip-rule="evenodd" d="M530.663 210.781L553.401 175.644C555.619 172.209 560.3 171.399 563.556 173.882C601.712 203.207 611.568 257.507 584.975 298.632C558.364 339.74 504.826 352.967 462.464 330.106C458.874 328.168 457.694 323.554 459.912 320.119L482.651 284.982C484.534 282.076 488.247 281.002 491.415 282.411C508.065 289.79 528.093 284.19 538.318 268.409C548.526 252.628 545.446 232.039 531.894 219.851C529.325 217.544 528.779 213.704 530.663 210.798V210.781Z" fill="#B5DBFF"/>
<path fill-rule="evenodd" clip-rule="evenodd" d="M545.411 404.202C577.707 404.202 603.93 430.445 603.93 462.764C603.93 495.083 577.707 521.325 545.411 521.325C513.116 521.325 486.892 495.083 486.892 462.764C486.892 430.445 513.098 404.202 545.411 404.202Z" fill="#438EFF"/>
<path d="M378.452 118.541L305.19 205.915C303.003 208.523 303.343 212.411 305.949 214.599L393.259 287.915C395.865 290.103 399.751 289.763 401.937 287.155L475.199 199.781C477.386 197.173 477.046 193.285 474.44 191.096L387.13 117.781C384.524 115.592 380.638 115.933 378.452 118.541Z" fill="#88DFFF"/>
<path fill-rule="evenodd" clip-rule="evenodd" d="M103.466 186.458L165.065 164.019C166.737 163.421 168.602 163.738 169.958 164.882L220.169 207.047C221.525 208.192 222.176 209.971 221.859 211.714L210.472 276.317C210.173 278.061 208.941 279.522 207.286 280.121L145.688 302.56C144.016 303.159 142.15 302.841 140.795 301.697L90.5831 259.532C89.2279 258.387 88.5767 256.609 88.8935 254.865L100.28 190.262C100.58 188.519 101.812 187.057 103.466 186.458Z" fill="#E0ECFF"/>
</svg>
