<svg width="24" height="28" viewBox="0 0 24 28" fill="none" xmlns="http://www.w3.org/2000/svg">
<path d="M7.99986 11.9999C7.99986 10.8959 8.89586 9.99993 9.99986 9.99993H13.9999C15.1039 9.99993 15.9999 10.8959 15.9999 11.9999C15.9999 12.0757 15.9698 12.1484 15.9162 12.202C15.8626 12.2555 15.7899 12.2856 15.7141 12.2856H8.28558C8.2098 12.2856 8.13713 12.2555 8.08354 12.202C8.02996 12.1484 7.99986 12.0757 7.99986 11.9999ZM11.9999 0.285645C10.5668 0.285287 9.18084 0.797896 8.09289 1.73072C7.00494 2.66355 6.28681 3.95498 6.06843 5.37136C4.38983 6.39057 3.00218 7.82513 2.03931 9.53667C1.07644 11.2482 0.570846 13.179 0.571289 15.1428V16.2856H23.4284V15.1428C23.4289 13.179 22.9233 11.2482 21.9604 9.53667C20.9975 7.82513 19.6099 6.39057 17.9313 5.37136C17.7129 3.95498 16.9948 2.66355 15.9068 1.73072C14.8189 0.797896 13.433 0.285287 11.9999 0.285645ZM11.9999 3.71422C10.9564 3.71422 9.945 3.85365 8.985 4.1165C9.32901 3.63834 9.7818 3.24885 10.306 2.98019C10.8302 2.71153 11.4108 2.5714 11.9999 2.57136C13.241 2.57136 14.3404 3.1805 15.0147 4.1165C14.0322 3.84868 13.0182 3.71339 11.9999 3.71422ZM9.99986 8.28564H13.9999C14.4876 8.28564 14.9706 8.38172 15.4213 8.56838C15.8719 8.75504 16.2814 9.02863 16.6263 9.37353C16.9712 9.71844 17.2448 10.1279 17.4314 10.5785C17.6181 11.0292 17.7141 11.5122 17.7141 11.9999C17.7141 12.5304 17.5034 13.0391 17.1284 13.4141C16.7533 13.7892 16.2446 13.9999 15.7141 13.9999H8.28558C7.75514 13.9999 7.24643 13.7892 6.87136 13.4141C6.49629 13.0391 6.28558 12.5304 6.28558 11.9999C6.28558 11.5122 6.38165 11.0292 6.56831 10.5785C6.75497 10.1279 7.02856 9.71844 7.37347 9.37353C8.07003 8.67697 9.01477 8.28564 9.99986 8.28564ZM6.28558 19.9999V17.9999H0.571289V23.1428C0.571289 24.3552 1.05292 25.518 1.91023 26.3753C2.76754 27.2326 3.9303 27.7142 5.14272 27.7142H18.857C20.0694 27.7142 21.2322 27.2326 22.0895 26.3753C22.9468 25.518 23.4284 24.3552 23.4284 23.1428V17.9999H7.99986V19.9999C7.99986 20.2273 7.90955 20.4453 7.74881 20.606C7.58806 20.7668 7.37005 20.8571 7.14272 20.8571C6.91539 20.8571 6.69737 20.7668 6.53663 20.606C6.37588 20.4453 6.28558 20.2273 6.28558 19.9999Z" fill="#438EFF"/>
</svg>
