<svg width="24" height="25" viewBox="0 0 24 25" fill="none" xmlns="http://www.w3.org/2000/svg">
<g clip-path="url(#clip0_2030_119)">
<path d="M23.1375 18.2722V10.4957L12.5272 16.2622C12.1318 16.4818 11.7144 16.5917 11.2751 16.5917C10.8357 16.5917 10.4183 16.4818 10.0229 16.2622L-1.11458 10.1991C-1.35623 10.0673 -1.52669 9.90258 -1.62599 9.70488C-1.72528 9.50717 -1.77449 9.28749 -1.77361 9.04585C-1.77273 8.80421 -1.72308 8.58454 -1.62467 8.38683C-1.52625 8.18912 -1.35623 8.02436 -1.11458 7.89256L10.0229 1.82953C10.2206 1.7197 10.4241 1.6371 10.6332 1.58174C10.8423 1.52638 11.0563 1.49914 11.2751 1.50002C11.4939 1.5009 11.7083 1.52858 11.9183 1.58306C12.1283 1.63754 12.3313 1.7197 12.5272 1.82953L25.0816 8.68339C25.3013 8.79323 25.4718 8.95271 25.593 9.16184C25.7143 9.37097 25.7745 9.59592 25.7736 9.83668V18.2722C25.7736 18.6456 25.6471 18.9589 25.394 19.212C25.141 19.465 24.8281 19.5911 24.4556 19.5902C24.083 19.5894 23.7702 19.4628 23.5171 19.2106C23.2641 18.9585 23.1375 18.6456 23.1375 18.2722ZM10.0229 24.1705L3.43269 20.6117C2.99334 20.3701 2.65284 20.0406 2.4112 19.6232C2.16956 19.2058 2.04873 18.7555 2.04873 18.2722V13.2636L10.0229 17.5802C10.4183 17.7999 10.8357 17.9097 11.2751 17.9097C11.7144 17.9097 12.1318 17.7999 12.5272 17.5802L20.5014 13.2636V18.2722C20.5014 18.7555 20.3806 19.2058 20.139 19.6232C19.8973 20.0406 19.5568 20.3701 19.1175 20.6117L12.5272 24.1705C12.3295 24.2803 12.1265 24.3629 11.9183 24.4183C11.71 24.4736 11.4956 24.5009 11.2751 24.5C11.0545 24.4991 10.8401 24.4719 10.6319 24.4183C10.4236 24.3647 10.2206 24.2821 10.0229 24.1705Z" fill="#438EFF"/>
</g>
<defs>
<clipPath id="clip0_2030_119">
<rect width="24" height="24" fill="white" transform="translate(0 0.5)"/>
</clipPath>
</defs>
</svg>
