<svg width="27" height="31" viewBox="0 0 27 31" fill="none" xmlns="http://www.w3.org/2000/svg">
<path fill-rule="evenodd" clip-rule="evenodd" d="M4.40987 0.318957L17.9184 0.3121V5.5761L4.40987 5.58296C3.79973 5.58365 3.20539 5.38901 2.71387 5.02753L0.524152 3.41153C0.452308 3.35839 0.393927 3.28915 0.353697 3.20936C0.313468 3.12957 0.292511 3.04146 0.292511 2.9521C0.292511 2.86274 0.313468 2.77463 0.353697 2.69484C0.393927 2.61505 0.452308 2.54581 0.524152 2.49267L2.71615 0.874386C3.20614 0.513015 3.79875 0.317614 4.40758 0.316672L4.40987 0.318957ZM23.4796 5.57153L20.7756 5.57381V0.309814H23.4887C24.9379 0.332672 26.0464 1.61953 26.0464 2.93839C26.0464 4.25953 24.9379 5.54867 23.4887 5.57153H23.4796ZM9.92301 10.8515C10.6887 11.1578 11.3402 11.4938 11.9047 11.8275V31.0001C11.0333 30.3462 10.0805 29.8084 9.07044 29.4001C7.39044 28.7281 4.96758 28.1727 1.27158 28.1727C0.968476 28.1727 0.677786 28.0523 0.463458 27.8379C0.249131 27.6236 0.128723 27.3329 0.128723 27.0298V10.6001C0.128723 10.297 0.249131 10.0063 0.463458 9.79198C0.677786 9.57765 0.968476 9.45724 1.27158 9.45724C5.20301 9.45724 7.92301 10.0492 9.92301 10.8515ZM17.5939 29.4001C16.3596 29.8961 15.4933 30.4652 14.7596 30.9978V11.8275C15.3242 11.4938 15.9779 11.1578 16.7436 10.8515C18.7436 10.0492 21.4636 9.45724 25.395 9.45724C25.6981 9.45724 25.9888 9.57765 26.2031 9.79198C26.4175 10.0063 26.5379 10.297 26.5379 10.6001V27.0298C26.5379 27.3329 26.4175 27.6236 26.2031 27.8379C25.9888 28.0523 25.6981 28.1727 25.395 28.1727C21.699 28.1727 19.2762 28.7258 17.5939 29.4001Z" fill="#438EFF"/>
</svg>
