<svg width="18" height="14" viewBox="0 0 18 14" fill="none" xmlns="http://www.w3.org/2000/svg">
<path d="M2.33366 13.6667C1.87533 13.6667 1.4831 13.5037 1.15699 13.1775C0.830881 12.8514 0.667548 12.4589 0.666992 12V2.00004C0.666992 1.54171 0.830326 1.14948 1.15699 0.823374C1.48366 0.497263 1.87588 0.33393 2.33366 0.333374H15.667C16.1253 0.333374 16.5178 0.496707 16.8445 0.823374C17.1712 1.15004 17.3342 1.54226 17.3337 2.00004V12C17.3337 12.4584 17.1706 12.8509 16.8445 13.1775C16.5184 13.5042 16.1259 13.6673 15.667 13.6667H2.33366ZM9.00033 7.83337L15.667 3.66671V2.00004L9.00033 6.16671L2.33366 2.00004V3.66671L9.00033 7.83337Z" fill="#438EFF"/>
</svg>
