<svg width="18" height="10" viewBox="0 0 18 10" fill="none" xmlns="http://www.w3.org/2000/svg">
<path d="M4.83366 9.16671C3.68088 9.16671 2.69838 8.76032 1.88616 7.94754C1.07394 7.13476 0.667548 6.15226 0.666993 5.00004C0.666437 3.84782 1.07283 2.86532 1.88616 2.05254C2.69949 1.23976 3.68199 0.833374 4.83366 0.833374H7.33366C7.56977 0.833374 7.76783 0.913374 7.92783 1.07337C8.08783 1.23337 8.16755 1.43115 8.16699 1.66671C8.16644 1.90226 8.08644 2.10032 7.92699 2.26087C7.76755 2.42143 7.56977 2.50115 7.33366 2.50004H4.83366C4.13921 2.50004 3.54894 2.7431 3.06283 3.22921C2.57671 3.71532 2.33366 4.3056 2.33366 5.00004C2.33366 5.69449 2.57671 6.28476 3.06283 6.77087C3.54894 7.25698 4.13921 7.50004 4.83366 7.50004H7.33366C7.56977 7.50004 7.76783 7.58004 7.92783 7.74004C8.08783 7.90004 8.16755 8.09782 8.16699 8.33337C8.16644 8.56893 8.08644 8.76698 7.92699 8.92754C7.76755 9.0881 7.56977 9.16782 7.33366 9.16671H4.83366ZM6.50033 5.83337C6.26421 5.83337 6.06644 5.75337 5.90699 5.59337C5.74755 5.43337 5.66755 5.2356 5.66699 5.00004C5.66644 4.76449 5.74644 4.56671 5.90699 4.40671C6.06755 4.24671 6.26533 4.16671 6.50033 4.16671H11.5003C11.7364 4.16671 11.9345 4.24671 12.0945 4.40671C12.2545 4.56671 12.3342 4.76449 12.3337 5.00004C12.3331 5.2356 12.2531 5.43365 12.0937 5.59421C11.9342 5.75476 11.7364 5.83449 11.5003 5.83337H6.50033ZM10.667 9.16671C10.4309 9.16671 10.2331 9.08671 10.0737 8.92671C9.91422 8.76671 9.83421 8.56893 9.83366 8.33337C9.8331 8.09782 9.9131 7.90004 10.0737 7.74004C10.2342 7.58004 10.432 7.50004 10.667 7.50004H13.167C13.8614 7.50004 14.4517 7.25698 14.9378 6.77087C15.4239 6.28476 15.667 5.69449 15.667 5.00004C15.667 4.3056 15.4239 3.71532 14.9378 3.22921C14.4517 2.7431 13.8614 2.50004 13.167 2.50004H10.667C10.4309 2.50004 10.2331 2.42004 10.0737 2.26004C9.91422 2.10004 9.83421 1.90226 9.83366 1.66671C9.8331 1.43115 9.9131 1.23337 10.0737 1.07337C10.2342 0.913374 10.432 0.833374 10.667 0.833374H13.167C14.3198 0.833374 15.3025 1.23976 16.1153 2.05254C16.9281 2.86532 17.3342 3.84782 17.3337 5.00004C17.3331 6.15226 16.9267 7.13504 16.1145 7.94837C15.3023 8.76171 14.3198 9.16782 13.167 9.16671H10.667Z" fill="#438EFF"/>
</svg>
