<svg width="22" height="27" viewBox="0 0 22 27" fill="none" xmlns="http://www.w3.org/2000/svg">
<path d="M11 26.4334C10.6889 26.4334 10.3778 26.3779 10.0667 26.2668C9.75555 26.1556 9.47777 25.989 9.23333 25.7668C7.78888 24.4334 6.51111 23.1334 5.4 21.8667C4.28888 20.6001 3.36133 19.3725 2.61733 18.1841C1.87333 16.9956 1.30666 15.8512 0.917329 14.7507C0.527995 13.6503 0.333328 12.6001 0.333328 11.6001C0.333328 8.26675 1.40577 5.61119 3.55066 3.63341C5.69555 1.65564 8.17866 0.666748 11 0.666748C13.8213 0.666748 16.3049 1.65564 18.4507 3.63341C20.5964 5.61119 21.6684 8.26675 21.6667 11.6001C21.6667 12.6001 21.4724 13.6503 21.084 14.7507C20.6956 15.8512 20.1289 16.9956 19.384 18.1841C18.6391 19.3725 17.7111 20.6001 16.6 21.8667C15.4889 23.1334 14.2111 24.4334 12.7667 25.7668C12.5222 25.989 12.2444 26.1556 11.9333 26.2668C11.6222 26.3779 11.3111 26.4334 11 26.4334ZM11 14.0001C11.7333 14.0001 12.3613 13.7392 12.884 13.2174C13.4067 12.6956 13.6676 12.0676 13.6667 11.3334C13.6658 10.5992 13.4049 9.97164 12.884 9.45075C12.3631 8.92986 11.7351 8.66853 11 8.66675C10.2649 8.66497 9.63733 8.9263 9.11733 9.45075C8.59733 9.97519 8.33599 10.6027 8.33333 11.3334C8.33066 12.0641 8.592 12.6921 9.11733 13.2174C9.64266 13.7427 10.2702 14.0036 11 14.0001Z" fill="#438EFF"/>
</svg>
