<svg width="24" height="25" viewBox="0 0 24 25" fill="none" xmlns="http://www.w3.org/2000/svg">
<path d="M18.357 2.11395C18.4594 1.94343 18.6253 1.82055 18.8183 1.77235C19.0112 1.72416 19.2155 1.75459 19.386 1.85695L19.389 1.85895L19.392 1.86095L19.402 1.86695C19.4409 1.89098 19.4789 1.91632 19.516 1.94295C19.5873 1.99229 19.6797 2.06295 19.793 2.15495C20.015 2.33995 20.305 2.61695 20.595 2.99295C21.177 3.74995 21.75 4.90695 21.75 6.49995C21.75 8.09295 21.177 9.24995 20.595 10.007C20.305 10.383 20.015 10.66 19.793 10.845C19.6726 10.9456 19.5464 11.0391 19.415 11.125L19.402 11.133L19.392 11.139L19.389 11.141L19.387 11.142C19.387 11.142 19.386 11.143 19 10.5L19.386 11.143C19.2161 11.2393 19.0154 11.2657 18.8264 11.2164C18.6374 11.167 18.4752 11.0459 18.3741 10.8788C18.273 10.7117 18.2411 10.5118 18.2852 10.3215C18.3292 10.1312 18.4458 9.96563 18.61 9.85995L18.615 9.85595L18.655 9.82895C18.6957 9.80095 18.7547 9.75562 18.832 9.69295C18.985 9.56495 19.195 9.36695 19.405 9.09295C19.823 8.54995 20.25 7.70695 20.25 6.49995C20.25 5.29295 19.823 4.44995 19.406 3.90695C19.2372 3.68659 19.0447 3.48538 18.832 3.30695C18.7622 3.24937 18.6898 3.19498 18.615 3.14395L18.61 3.13995C18.441 3.03694 18.3195 2.87127 18.2721 2.67908C18.2247 2.48688 18.2552 2.28374 18.357 2.11395ZM10 10.5C11.0609 10.5 12.0783 10.0785 12.8284 9.32838C13.5786 8.57823 14 7.56082 14 6.49995C14 5.43909 13.5786 4.42167 12.8284 3.67152C12.0783 2.92138 11.0609 2.49995 10 2.49995C8.93913 2.49995 7.92172 2.92138 7.17157 3.67152C6.42143 4.42167 6 5.43909 6 6.49995C6 7.56082 6.42143 8.57823 7.17157 9.32838C7.92172 10.0785 8.93913 10.5 10 10.5ZM2 18C2 20.485 2 22.5 10 22.5C18 22.5 18 20.485 18 18C18 15.515 14.418 13.5 10 13.5C5.582 13.5 2 15.515 2 18Z" fill="#438EFF"/>
<path d="M17.3861 3.8569C17.3016 3.80606 17.2079 3.77238 17.1104 3.75778C17.0129 3.74318 16.9134 3.74795 16.8178 3.77182C16.7221 3.79569 16.6321 3.83819 16.5529 3.89689C16.4736 3.95559 16.4068 4.02933 16.3561 4.1139L16.6061 5.1379L16.6131 5.1429L16.6761 5.1919C16.7361 5.2419 16.8201 5.3209 16.9061 5.4319C17.1383 5.73871 17.2596 6.11523 17.2501 6.4999C17.2596 6.88458 17.1383 7.26109 16.9061 7.5679C16.8222 7.67759 16.7236 7.77518 16.6131 7.8579L16.6051 7.8619C16.4388 7.96703 16.3205 8.13328 16.2756 8.32482C16.2308 8.51636 16.263 8.71786 16.3653 8.88589C16.4676 9.05391 16.6318 9.17501 16.8226 9.22309C17.0133 9.27116 17.2153 9.24237 17.3851 9.1429H17.3871L17.3891 9.1409L17.3921 9.1399L17.3991 9.1349L17.4191 9.1229C17.495 9.07387 17.5675 9.01974 17.6361 8.9609C17.7651 8.8539 17.9301 8.6959 18.0951 8.4819C18.5288 7.91302 18.7594 7.21521 18.7501 6.4999C18.7594 5.7846 18.5288 5.08678 18.0951 4.5179C17.9181 4.28751 17.7086 4.08406 17.4731 3.9139L17.4191 3.8769L17.3991 3.8649L17.3921 3.8599L17.3891 3.8589L17.3871 3.8579C17.3871 3.8579 17.3861 3.8569 17.0001 4.4999L17.3861 3.8569Z" fill="#438EFF"/>
</svg>
