<svg width="27" height="28" viewBox="0 0 27 28" fill="none" xmlns="http://www.w3.org/2000/svg">
<path fill-rule="evenodd" clip-rule="evenodd" d="M0.973428 6.67189C-0.283905 8.84923 0.456095 11.6132 1.93876 17.1426C3.41876 22.6719 4.1601 25.4359 6.33876 26.6932C8.51743 27.9506 11.2801 27.2092 16.8094 25.7279C22.3388 24.2466 25.1028 23.5066 26.3601 21.3279C27.6174 19.1492 26.8761 16.3866 25.3948 10.8572C23.9134 5.32789 23.1734 2.56389 20.9948 1.30656C18.8161 0.0492245 16.0534 0.789225 10.5241 2.27189C4.99476 3.75189 2.23076 4.49323 0.973428 6.67189ZM8.5801 19.0012C8.61204 18.8738 8.66877 18.754 8.74704 18.6485C8.82531 18.5431 8.92358 18.4541 9.03625 18.3866C9.14892 18.3191 9.27378 18.2745 9.4037 18.2553C9.53362 18.236 9.66605 18.2426 9.79343 18.2746C11.3001 18.6519 13.0308 18.6559 14.7881 18.1852C16.5454 17.7146 18.0414 16.8452 19.1588 15.7652C19.252 15.669 19.3637 15.5926 19.487 15.5404C19.6104 15.4882 19.743 15.4613 19.877 15.4614C20.011 15.4614 20.1436 15.4884 20.2669 15.5406C20.3902 15.5929 20.5018 15.6694 20.595 15.7657C20.6882 15.8619 20.7611 15.9759 20.8094 16.1009C20.8577 16.2258 20.8804 16.3592 20.8762 16.4931C20.8719 16.627 20.8408 16.7587 20.7847 16.8803C20.7285 17.002 20.6485 17.1111 20.5494 17.2012C20.0758 17.6588 19.5627 18.0738 19.0161 18.4412L19.2281 18.8679C19.3439 19.1037 19.4122 19.3599 19.429 19.6221C19.4457 19.8842 19.4107 20.1471 19.3259 20.3957C19.2411 20.6443 19.1082 20.8738 18.9347 21.071C18.7612 21.2683 18.5505 21.4294 18.3148 21.5452C18.079 21.6611 17.8227 21.7293 17.5606 21.7461C17.2984 21.7629 17.0356 21.7279 16.7869 21.6431C16.5383 21.5582 16.3088 21.4253 16.1116 21.2518C15.9144 21.0783 15.7533 20.8677 15.6374 20.6319L15.3761 20.0986L15.3054 20.1172C13.2321 20.6732 11.1561 20.6772 9.30676 20.2146C9.17937 20.1826 9.05953 20.1259 8.95407 20.0476C8.84861 19.9693 8.7596 19.8711 8.69212 19.7584C8.62464 19.6457 8.58002 19.5209 8.5608 19.391C8.54157 19.261 8.54813 19.1286 8.5801 19.0012ZM18.3001 10.6879C18.5868 11.7546 18.2414 12.7746 17.5308 12.9639C16.8188 13.1546 16.0108 12.4439 15.7254 11.3772C15.4401 10.3106 15.7841 9.29189 16.4948 9.10122C17.2068 8.91056 18.0148 9.62122 18.3001 10.6879ZM9.80276 15.0346C10.5148 14.8439 10.8588 13.8252 10.5734 12.7586C10.2881 11.6919 9.48009 10.9812 8.7681 11.1719C8.0561 11.3626 7.7121 12.3812 7.99743 13.4479C8.28276 14.5146 9.09076 15.2252 9.80276 15.0346Z" fill="#438EFF"/>
</svg>
