<svg width="20" height="20" viewBox="0 0 20 20" fill="none" xmlns="http://www.w3.org/2000/svg">
<path d="M0 20V7C0 6.45 0.196 5.979 0.588 5.587C0.979333 5.19567 1.45 5 2 5H4V10C4 10.55 4.196 11.0207 4.588 11.412C4.97933 11.804 5.45 12 6 12H16V15C16 15.55 15.8043 16.021 15.413 16.413C15.021 16.8043 14.55 17 14 17H3L0 20ZM16 12V7C16 6.45 15.8043 5.979 15.413 5.587C15.021 5.19567 14.55 5 14 5H4V2C4 1.45 4.196 0.979 4.588 0.587C4.97933 0.195667 5.45 0 6 0H18C18.55 0 19.021 0.195667 19.413 0.587C19.8043 0.979 20 1.45 20 2V10C20 10.55 19.8043 11.0207 19.413 11.412C19.021 11.804 18.55 12 18 12H16Z" fill="#438EFF"/>
</svg>
