<svg width="107" height="62" viewBox="0 0 107 62" fill="none" xmlns="http://www.w3.org/2000/svg">
<path d="M0.326218 12.4544H9.80489L9.80102 35.6398C9.99849 38.9832 11.0981 41.7176 14.9856 41.5185C18.544 41.3385 19.1519 38.6232 19.2913 35.6398V12.4544H27.4574C36.9593 -0.294844 55.6572 -3.92546 69.2518 4.69533C70.6496 3.68045 72.6785 3.83364 73.6156 5.35022C74.1964 6.28852 74.1422 7.12723 73.8711 8.14978C75.2534 9.47488 76.597 10.8383 77.6967 12.4046C78.0335 12.6076 81.2705 12.3549 82.0062 12.4468C82.1107 12.4583 82.223 12.4391 82.2927 12.5463L89.7386 38.1713L97.4749 12.4544H107L94.6715 48.975L84.9605 49.0593L82.2424 41.1355C78.8737 51.1963 69.972 58.9631 59.5137 61.2609C49.0554 63.5588 37.8227 60.3647 30.3033 52.7512C30.0129 52.621 29.7109 52.8661 29.3895 52.8967C26.9966 53.1265 25.4362 51.112 26.2919 48.8793C26.3616 48.6916 26.6442 48.4504 26.6133 48.2742L25.0374 45.8231C21.3667 49.718 15.1947 50.4916 10.1495 49.2546C4.55832 47.8836 0.527562 43.2074 0.42689 37.4475L0.326218 37.2177V12.4544ZM72.6669 12.4544H76.0511L73.0502 9.24509C72.8876 9.16467 72.3184 9.53232 72.0629 9.61275C69.6468 10.3634 67.6333 8.05021 68.5045 5.76767C66.0806 4.4081 63.56 3.21705 60.865 2.46641C48.9664 -0.850159 36.2972 3.33577 28.8281 12.96L28.7506 13.3621C28.4912 20.9412 29.1107 28.7577 28.7506 36.31C28.7196 36.9955 28.6345 37.8113 28.5454 38.4968C28.2511 40.7372 27.5154 42.8857 26.0867 44.6665C26.0441 44.8619 27.4806 47.3014 27.6897 47.4048C28.8435 47.1636 29.9045 47.1061 30.8338 47.9218C31.945 48.8946 32.1696 50.5299 31.279 51.7171L31.31 51.8397C39.023 59.5835 50.5423 62.5286 61.1516 59.4418C70.9361 56.5924 78.9822 48.6035 81.5416 38.8185L72.663 12.4544H72.6669ZM68.4929 19.6927C58.9755 6.38426 36.9825 10.5357 33.6293 26.4905C30.737 40.2355 42.2639 51.7248 56.1528 49.5189C63.4903 48.3546 69.9797 42.5717 71.4124 35.3028H61.5969C60.172 38.1292 58.2166 40.5266 54.9525 41.2619C46.0082 43.2763 40.3899 33.7364 43.5804 26.1037C45.6055 21.2514 50.6855 18.9037 55.7927 20.4854C58.7548 21.4046 60.4004 23.7254 61.593 26.4139H71.4085C71.1723 23.982 69.8946 21.6573 68.489 19.6927H68.4929Z" fill="#438EFF"/>
</svg>
