<svg width="107" height="62" viewBox="0 0 107 62" fill="none" xmlns="http://www.w3.org/2000/svg">
<path d="M0.326172 12.4544H9.80484L9.80097 35.6398C9.99844 38.9832 11.0981 41.7176 14.9856 41.5185C18.544 41.3385 19.1519 38.6232 19.2913 35.6398V12.4544H27.4573C36.9592 -0.294844 55.6571 -3.92546 69.2518 4.69533C70.6496 3.68045 72.6785 3.83364 73.6155 5.35022C74.1963 6.28852 74.1421 7.12723 73.8711 8.14978C75.2534 9.47488 76.597 10.8383 77.6966 12.4046C78.0335 12.6076 81.2705 12.3549 82.0061 12.4468C82.1107 12.4583 82.223 12.4391 82.2927 12.5463L89.7385 38.1713L97.4748 12.4544H107L94.6715 48.975L84.9605 49.0593L82.2423 41.1355C78.8737 51.1963 69.972 58.9631 59.5137 61.2609C49.0554 63.5588 37.8227 60.3647 30.3032 52.7512C30.0128 52.621 29.7108 52.8661 29.3895 52.8967C26.9966 53.1265 25.4361 51.112 26.2918 48.8793C26.3615 48.6916 26.6442 48.4504 26.6132 48.2742L25.0373 45.8231C21.3667 49.718 15.1947 50.4916 10.1495 49.2546C4.55828 47.8836 0.527516 43.2074 0.426844 37.4475L0.326172 37.2177V12.4544ZM72.6669 12.4544H76.051L73.0502 9.24509C72.8876 9.16467 72.3184 9.53232 72.0628 9.61275C69.6467 10.3634 67.6333 8.05021 68.5045 5.76767C66.0806 4.4081 63.5599 3.21705 60.865 2.46641C48.9663 -0.850159 36.2971 3.33577 28.828 12.96L28.7506 13.3621C28.4911 20.9412 29.1107 28.7577 28.7506 36.31C28.7196 36.9955 28.6344 37.8113 28.5454 38.4968C28.2511 40.7372 27.5154 42.8857 26.0866 44.6665C26.044 44.8619 27.4806 47.3014 27.6896 47.4048C28.8435 47.1636 29.9044 47.1061 30.8337 47.9218C31.945 48.8946 32.1696 50.5299 31.279 51.7171L31.31 51.8397C39.023 59.5835 50.5422 62.5286 61.1515 59.4418C70.9361 56.5924 78.9821 48.6035 81.5415 38.8185L72.663 12.4544H72.6669ZM68.4929 19.6927C58.9755 6.38426 36.9825 10.5357 33.6293 26.4905C30.7369 40.2355 42.2639 51.7248 56.1528 49.5189C63.4902 48.3546 69.9797 42.5717 71.4123 35.3028H61.5968C60.1719 38.1292 58.2165 40.5266 54.9524 41.2619C46.0081 43.2763 40.3898 33.7364 43.5804 26.1037C45.6054 21.2514 50.6855 18.9037 55.7927 20.4854C58.7547 21.4046 60.4004 23.7254 61.5929 26.4139H71.4085C71.1723 23.982 69.8945 21.6573 68.489 19.6927H68.4929Z" fill="white"/>
</svg>
