<svg width="660" height="140" viewBox="0 0 660 140" fill="none" xmlns="http://www.w3.org/2000/svg">
<path d="M227.766 9.30748C228.055 8.67729 228.199 7.56233 228.631 7.46537C230.792 6.93213 233.049 6.25346 234.826 8.33795C236.362 10.1316 238.379 9.01662 240.444 9.45291C241.885 10.8587 243.566 12.41 245.15 14.0097C247.455 14.9307 248.272 12.5554 249.856 11.8767C250.961 12.9917 252.017 14.0582 253.122 15.1731C253.122 18.2756 253.122 21.3781 253.122 24.4806C253.65 25.0139 254.226 25.5471 255.091 26.4197C256.099 29.3767 254.851 32.867 255.427 35.4848C253.794 38.2964 252.45 40.4294 251.249 42.6593C250.577 43.9197 250.529 45.8587 249.52 46.4889C246.831 48.331 246.639 51.6759 244.67 53.8089C240.204 58.608 235.594 63.2618 230.84 67.7701C229.015 69.4668 226.518 70.4363 224.549 71.9875C222.772 73.3933 221.38 76.3019 219.555 76.5443C216.385 77.0291 215.329 79.5499 213.216 80.9072C212.063 81.6343 210.575 81.8767 209.326 82.313V84.9307C211.055 87.597 214.368 84.8338 216.481 87.2576C217.778 88.7604 220.179 89.3421 222.772 90.6994H240.396C241.164 89.9723 241.981 89.1967 242.845 88.4211H254.322C254.899 87.8393 255.427 87.3061 256.435 86.2881C258.548 86.1911 261.141 86.0457 263.735 85.9003C264.263 85.367 264.839 84.7853 265.896 83.7188C267.624 83.7188 269.977 84.2036 272.042 83.5734C274.395 82.8463 276.364 80.6163 279.198 81.392C281.791 82.1191 283.087 79.4044 285.152 79.1136C287.409 78.8227 289.762 79.259 291.155 76.7867H295.669C296.533 75.9626 297.35 75.187 298.214 74.4114H302.728C303.593 73.5873 304.409 72.8116 305.225 72.0845C311.18 73.1994 314.782 66.5097 321.505 67.5762C322.513 66.1219 323.81 64.2313 324.77 62.8255H334.759C338.12 60.4017 350.173 54.5845 354.063 53.4695C354.736 53.2756 355.744 53.4695 356.128 53.0332C358.193 50.7548 361.411 50.6579 363.62 48.8158C366.597 49.8823 368.278 46.9737 370.727 46.4889C371.399 46.3435 372.119 46.0526 372.696 45.6648C373.32 45.277 373.848 44.6953 374.376 44.1621C376.297 44.1621 378.218 44.1621 380.523 44.1621C384.797 40.7687 391.184 40.1385 394.738 34.8061C395.65 35.6787 396.466 36.4058 397.091 36.9391C399.636 35.4848 402.133 34.0305 404.774 32.5277H410.248C414.426 30.3463 418.556 28.1648 423.406 25.644H429.265C432.963 22.4931 437.813 21.6205 441.462 18.5665H447.609C448.234 18.0817 449.098 17.4515 450.395 16.482H455.725C458.51 15.2216 461.199 14.8338 462.256 13.331C464.273 10.4224 467.778 12.9432 469.363 10.9072C470.948 8.87119 473.493 9.69529 475.174 7.85319C476.134 6.7867 478.631 7.07756 480.552 6.68975C481.176 6.15651 481.993 5.42936 482.761 4.75069C483.433 5.42936 483.962 5.9626 484.538 6.54432C486.939 5.28393 489.388 4.02355 492.605 2.37535H500.817C501.682 1.55125 502.546 0.8241 503.41 0H524.06C524.876 0.775623 525.692 1.55125 526.557 2.32687H533.424C535.201 4.60526 535.057 8.241 538.754 9.259C539.955 9.21053 541.588 9.259 541.395 6.93213C543.701 6.73823 543.028 8.87119 543.797 9.84072C546.294 13.0402 548.599 16.2881 550.616 20.8934V29.0859C551.192 29.6676 551.72 30.2008 552.392 30.8795C553.593 33.7396 552.392 36.8421 553.161 40.2839C554.89 43.6773 556.522 47.7493 558.923 51.2881C561.469 55.0692 566.991 54.4391 570.064 58.0748H581.397C582.31 58.8989 583.126 59.626 584.087 60.4501H597.821C598.589 59.723 599.406 58.9474 600.27 58.1717H625.577C626.154 57.59 626.682 57.0568 627.21 56.5235C627.498 56.3296 627.786 55.8934 628.074 55.8934C635.71 55.8934 643.393 55.8934 650.885 55.8934C651.605 55.1662 652.133 54.633 652.95 53.8089H682.435C683.395 53.0332 684.26 52.3546 685.412 51.4335H706.398C707.166 52.2091 707.694 52.7424 708.367 53.4211H726.615C727.527 54.2452 728.344 54.9723 729.304 55.7964H738.332C739.196 56.6205 740.061 57.3961 740.877 58.1717H750.049C750.626 58.7535 751.154 59.2867 752.114 60.2562C754.275 60.3532 756.82 60.4986 759.413 60.644C759.942 61.1773 760.518 61.759 761.334 62.5831C763.591 62.6801 766.185 62.8255 768.586 62.9224C769.306 63.6496 769.834 64.1828 770.795 65.1524H782.32C783.28 66.1219 783.808 66.6551 784.481 67.3338H795.814C796.726 68.1579 797.543 68.885 798.455 69.7091H807.483C808.348 70.5332 809.212 71.3089 809.98 72.036C811.805 72.3269 813.822 71.4543 815.887 73.054C814.11 73.9266 812.669 74.6537 811.181 75.3809C814.638 77.3199 817.856 79.5014 821.938 79.5014C822.258 81.5374 821.345 83.7027 819.2 85.9972H789.283C788.515 85.2701 787.65 84.5429 786.834 83.7673C786.306 84.3006 785.729 84.8823 784.817 85.8033C784.145 85.3186 783.424 84.7853 782.08 83.7673H773.148C772.187 82.7978 771.659 82.2645 770.699 81.295H761.478C760.518 80.3255 759.99 79.7922 759.365 79.162H750.337C749.473 78.3379 748.609 77.5623 747.744 76.7867H740.973C740.109 75.9626 739.292 75.187 738.428 74.4114H733.962C733.386 73.8296 732.81 73.2479 731.897 72.3269H722.677C721.717 71.3573 721.188 70.8241 720.42 70.0485H655.447C654.774 70.7271 654.246 71.2604 653.286 72.2299H630.235C629.275 73.1994 628.747 73.7327 628.122 74.3629H603.055C601.807 75.3324 600.654 76.205 600.174 76.5443C597.293 77.1745 597.052 74.8961 596.476 74.7992C593.451 73.7812 592.394 75.6717 591.05 76.6898C590.378 76.0111 589.801 75.4294 589.129 74.7507C588.072 75.4294 586.92 76.108 585.335 77.0776C584.327 76.3989 583.126 75.6233 581.59 74.5568H570.641C569.776 73.7327 568.96 72.9571 568.095 72.2299C567.327 72.9571 566.511 73.6842 565.694 74.4114C565.118 73.8296 564.59 73.2964 563.726 72.4238H555.658C551.912 70.4363 548.743 68.7881 545.237 66.8975C541.299 62.9224 536.977 58.5596 532.319 53.8573V47.7493C531.503 46.8283 530.735 46.0042 530.062 45.1801V38.8296C529.63 38.1994 528.958 37.3269 527.997 36.018V28.1163C526.701 25.5471 525.74 23.608 524.54 21.1357C523.339 19.9238 521.707 18.2756 519.93 16.482H503.362C502.594 17.2576 502.066 17.7909 501.393 18.4695H494.718C493.806 19.2936 492.99 20.0208 492.029 20.8449H487.611C486.747 21.669 485.931 22.4446 485.066 23.2202H480.504C479.928 23.8019 479.4 24.3352 478.871 24.8684C477.143 26.8075 474.261 24.1413 472.629 26.5166C471.284 28.5042 468.643 27.0014 467.538 27.9709C464.321 30.6856 459.663 29.4737 456.685 32.4792C452.748 31.3643 450.202 36.5028 446.121 34.8061C443.912 38.4903 438.725 35.7756 436.516 39.4598C432.482 37.9571 429.889 42.4169 425.904 41.9806C424.175 41.7867 422.398 44.2105 420.189 44.6468C419.229 44.8407 418.22 46.4889 417.5 46.295C414.474 45.5679 412.698 48.8643 410.393 48.5734C407.319 48.1856 405.782 50.8518 403.237 51.0457C400.98 51.2396 399.972 54.1967 397.283 53.4211C394.449 52.6454 393.249 56.7175 390.32 56.0388C388.879 58.5111 386.43 57.7839 384.221 58.1233C383.26 58.2687 382.54 59.9654 381.628 60.0623C378.362 60.4986 376.009 64.1343 372.311 62.6801C370.631 65.4917 366.837 64.813 365.012 67.3338C361.266 65.6856 359.057 70.1454 355.6 69.7091C354.928 69.6122 353.727 69.7091 353.535 70.097C352.238 72.3753 349.309 71.4543 347.916 73.3449C346.284 75.5748 343.162 73.0055 341.77 75.0415C340.281 77.1745 337.592 76.1565 336.055 78.1925C334.422 80.3255 330.581 77.4654 329.092 80.7133C326.067 80.7133 324.338 84.2521 321.072 83.6219C318.335 83.0886 317.039 87.0152 313.965 85.9972C311.564 85.2216 310.7 89.0997 308.011 88.2756C305.85 87.6454 304.457 89.0512 303.208 90.554C300.135 89.1967 299.271 94.2382 296.101 92.9294C293.268 91.7659 292.163 96.0803 288.946 95.4017C287.169 95.0138 285.056 97.1468 282.991 97.3892C281.022 97.6316 279.294 97.777 277.901 99.9585H268.489C267.528 100.928 267 101.461 266.376 102.091H261.91C261.045 102.916 260.229 103.691 259.365 104.467C255.571 104.467 251.729 104.467 247.887 104.467C247.359 105 246.783 105.582 246.255 106.115C245.582 106.357 244.91 106.745 244.238 106.745C233.865 106.745 223.541 106.745 213.312 106.745C212.64 106.066 212.063 105.485 211.007 104.418C209.326 104.418 206.637 105.242 204.956 104.224C202.315 102.673 199.53 102.382 196.792 101.558C194.439 100.831 192.423 99.0859 189.781 97.4862H183.442C182.098 99.9585 178.736 99.2798 177.056 101.413C175.663 103.158 174.03 104.806 171.533 104.709C169.9 108.296 166.059 105.824 163.562 107.86C161.16 109.799 157.943 110.866 155.014 112.223C152.469 113.435 149.731 114.501 147.378 116.101C144.977 117.701 141.856 117.992 139.887 120.367C135.997 119.882 133.164 122.791 129.706 123.663C127.785 127.202 122.551 123.421 121.014 127.735C118.853 127.978 116.596 127.057 114.724 129.384C113.091 131.371 109.249 128.608 107.76 131.904C105.503 132.05 102.574 131.371 101.181 132.583C98.1561 135.152 94.9387 134.619 91.3851 134.765C90.6648 135.395 89.8004 136.122 88.7919 136.994H73.0889C71.7923 137.964 70.6878 138.837 69.1031 140C67.8545 138.934 66.75 138.061 65.6455 137.14C65.1173 137.673 64.541 138.255 63.6286 139.176C63.0043 138.691 62.284 138.158 60.8914 137.14H47.3493C46.3889 136.17 45.8606 135.637 45.1403 134.91C44.372 135.54 43.6036 136.17 42.7872 136.849C41.3466 135.201 38.8014 135.249 37.4088 133.843C35.7281 132.244 33.9032 132.825 32.2225 132.292C29.8694 131.565 27.7565 130.111 25.4995 128.996C24.2029 128.366 22.9063 127.881 21.4657 127.251C18.8245 124.584 16.1833 121.821 13.398 119.155C10.7088 116.586 11.045 111.738 6.91511 110.769V105.582C6.33885 105 5.81061 104.467 5.23435 103.885C4.75414 99.8615 3.31349 96.1773 1.1045 92.8324C1.00845 92.6385 0.384173 92.8324 0 92.8324V76.5443C5.3304 74.4598 6.91511 69.3698 9.26817 64.8615C10.7088 62.0014 11.6692 58.8019 13.8302 56.3296C13.2059 52.3061 18.8725 51.8698 18.5844 47.7978C18.5363 46.7313 20.4092 45.5194 21.4657 44.4529C25.4995 40.3324 29.5813 36.2604 33.6631 32.1399C35.8241 29.9584 37.9851 27.7285 40.1941 25.5956C40.3862 25.4017 40.9144 25.4017 41.2505 25.4017C44.6601 25.4017 45.5245 21.7175 48.4538 20.5055C52.6797 18.7604 56.9056 16.7244 60.8434 14.2521C62.9083 12.9432 66.0297 13.0402 67.8065 15.9003C70.3997 16.0457 72.9448 16.1911 75.7781 16.3366C75.3939 17.2576 75.2979 17.8878 74.9617 18.3241C74.2414 19.1967 73.1369 20.7479 72.5606 20.6025C69.4872 19.8753 68.4788 24.2382 65.5014 23.2687C63.3405 25.4501 61.1795 27.6316 59.0185 29.813C55.2248 33.6427 51.5272 37.6177 47.5894 41.2535C43.9878 44.5983 42.6912 49.4945 39.2336 52.8878C38.5133 53.5665 38.4653 54.9238 37.841 55.7479C36.8806 56.9598 35.7281 57.9778 34.6236 59.0443C34.3354 61.2258 34.4795 63.2133 33.2309 65.4432C31.5502 68.4488 29.0531 71.5512 29.6773 75.5748C29.7734 76.0111 28.6689 76.6413 27.9005 77.4169V85.9003C26.8921 87.5 26.1237 88.7119 25.0673 90.4086C25.6916 91.4266 26.4599 92.6385 27.5644 94.3352V99.2798C28.5728 100.104 30.2536 101.122 31.4541 102.528C32.3185 103.546 32.5586 105.145 33.1349 106.406C33.9032 108.006 34.3835 110.526 35.632 110.963C37.4088 111.641 38.9935 112.223 40.3381 113.58C41.3466 114.598 42.0669 115.859 43.9398 116.101C45.6205 116.295 47.1572 117.507 48.7419 118.331C49.7023 118.816 50.6148 119.446 52.1995 120.416H84.0858C84.47 120.125 85.3344 119.446 86.4869 118.476H92.8738C93.7862 117.701 94.6506 116.974 95.707 116.101H102.238C103.15 115.325 103.967 114.55 104.927 113.726H111.65C112.515 112.902 113.331 112.126 114.195 111.35H117.941C127.161 106.6 135.709 102.188 144.929 97.3892H148.723C151.604 93.8989 155.494 92.0568 159.576 90.3116C163.177 88.8089 166.491 86.6759 170.477 84.5429V58.705C174.655 56.5235 174.703 51.385 178.208 49.0582C181.522 46.8767 181.906 42.6593 184.643 40.09C187.716 37.1814 190.646 34.1274 193.623 31.0734C196.312 28.3102 199.001 25.5956 201.643 22.8809H204.044C205.388 21.5235 206.781 20.1177 208.462 18.4211C209.566 18.3726 211.007 18.2756 212.784 18.1787C214.56 16.7729 216.385 14.3975 218.69 13.8158C221.668 13.0402 222.676 10.4224 224.789 8.96814C225.942 8.96814 227.094 8.96814 228.247 8.96814C228.679 10.4709 227.142 12.6039 229.927 13.5734C230.023 11.8283 232.713 11.8283 232.376 9.259C230.984 9.16205 229.639 9.0651 228.247 9.01662L227.766 9.30748ZM545.189 34.9515C545.477 31.8975 546.678 28.6011 544.469 24.7715C543.316 28.892 542.932 31.946 546.486 34.9515C546.198 38.0055 544.997 41.3019 547.206 45.1316C548.359 41.0111 548.743 37.9571 545.189 34.9515ZM20.3131 95.4501C20.7453 96.9529 19.2086 99.0374 21.6577 99.91C22.33 97.8416 21.9619 96.355 20.5532 95.4501C20.3131 90.2147 20.073 85.0277 19.7369 79.7922C19.7369 79.6468 19.2567 79.5014 18.9685 79.356C17.5759 88.0332 17.6239 89.1967 20.3131 95.4501ZM201.018 62.6316C203.66 61.5651 204.524 57.6385 208.222 58.2202C211.391 54.9723 214.801 51.8698 217.778 48.428C219.939 46.0042 221.572 43.144 223.444 40.4778C224.069 39.6053 224.885 38.7812 225.413 37.8116C226.278 36.2604 227.19 34.7091 227.67 33.0125C227.862 32.2853 227.142 31.2673 226.374 29.1343C224.549 31.7521 223.3 33.6427 222.532 34.7576C220.707 35.097 220.035 35.2424 219.315 35.3393C214.464 40.2355 209.614 45.1316 205.676 49.1066C204.236 52.1122 202.747 53.9543 202.555 55.9418C202.363 58.3172 197.369 59.5291 201.018 62.6316ZM247.359 25.5956C245.726 27.1468 245.726 28.6981 247.359 30.2493C248.992 28.6981 248.992 27.1468 247.359 25.5956ZM14.5505 109.411C16.1833 107.86 16.1833 106.309 14.5505 104.758C12.9178 106.309 12.9178 107.86 14.5505 109.411ZM21.8018 76.4958C22.0899 76.205 22.3781 75.9141 22.6182 75.6717C22.0899 75.4294 21.6097 75.09 21.0815 74.9446C20.8894 74.9446 20.6013 75.4294 20.3131 75.6717C20.7934 75.9626 21.3216 76.2535 21.8018 76.4958Z" fill="#F0F7FF"/>
</svg>
