<svg width="1176" height="220" viewBox="0 0 1176 220" fill="none" xmlns="http://www.w3.org/2000/svg">
<path d="M332.661 146.545C334.847 147.218 335.408 144.303 337.65 143.462H346.619C347.46 142.621 348.188 141.892 349.197 140.883C352.953 140.21 356.989 139.594 361.137 141.892C356.652 144.135 352.448 146.265 348.188 148.396C350.543 151.255 353.457 149.124 355.7 150.19C357.045 148.9 358.222 147.835 359.399 146.77H365.677C367.191 145.256 368.704 143.742 370.106 142.341C368.928 140.267 367.751 138.192 366.686 136.342C370.386 132.194 372.628 134.548 375.038 137.071C376.103 136.118 377.224 135.165 378.346 134.212C379.018 134.829 379.803 135.501 380.7 136.286C383.895 138.248 387.651 136.735 391.182 137.239C392.527 141.948 397.516 145.48 395.61 151.03C396.9 152.432 397.965 153.553 399.086 154.787V167.457C400.599 168.914 402.113 170.428 403.794 172.054H409.848C411.081 173.175 412.202 174.184 413.604 175.417C415.678 176.651 419.433 173.119 421.339 177.996C415.285 179.117 409.512 178.22 403.458 178.669C402.841 180.407 402.225 182.257 401.552 184.051C395.386 187.022 391.406 181.64 386.361 180.126V157.814C383.11 155.291 381.092 151.311 376.552 149.293C374.926 150.526 373.357 151.759 371.675 153.105H362.426C360.464 155.067 358.614 156.917 356.26 159.272C350.823 157.478 346.731 163.813 340.004 162.411C338.547 164.71 336.865 167.457 335.912 168.914H324.645C320.946 172.222 317.583 175.529 313.883 178.389C311.977 179.846 309.118 181.92 307.381 181.416C301.607 179.734 298.58 188.255 293.143 184.331C291.517 185.845 290.396 186.91 289.163 188.031H282.829C280.25 190.666 277.84 193.525 274.925 195.824C272.627 197.618 269.712 198.627 265.9 200.589H258.501C254.521 202.832 251.102 204.85 247.01 207.148H241.461L235.463 213.147H226.55C225.205 214.212 223.972 215.109 222.29 216.455H213.826C210.687 219.089 207.492 220.435 203.456 219.874C202.447 218.977 201.27 217.968 199.98 216.791H184.397C183.556 216.006 182.772 215.333 181.819 214.436C178.624 212.474 174.868 213.988 171.224 213.483C169.711 211.297 167.469 210.568 164.834 209.895C163.097 209.503 160.63 207.148 160.518 205.579C160.35 202.607 159.005 200.757 157.155 199.356V187.527C159.005 183.883 160.35 181.248 161.751 178.613C163.377 175.585 165.899 172.67 166.404 169.475C166.908 166.223 171.112 164.934 169.823 161.29C172.514 159.159 173.579 156.468 173.018 153.049C177.334 153.385 175.316 149.236 176.886 147.667C179.857 144.639 182.94 141.78 185.855 138.921C185.855 137.576 185.462 135.894 185.911 135.613C188.994 133.876 188.041 129.559 190.395 127.933C195.384 124.569 195.16 117.562 200.429 114.534C201.326 110.161 206.09 107.19 204.913 102.088C206.875 102.425 207.884 101.248 208.052 99.6778C208.276 97.5475 207.94 95.4732 204.913 95.6975V90.9883C205.978 89.811 206.987 88.7458 207.996 87.5685C207.043 87.0639 206.202 86.5594 205.306 86.1109C200.597 83.9245 198.243 90.0913 193.927 89.3064C192.245 92.3337 188.713 92.1095 186.191 93.6792C184.117 94.9687 181.875 95.9778 179.633 97.099C178.343 97.7717 176.998 98.4445 175.597 98.8369C166.908 101.36 165.058 102.257 160.014 107.19C158.5 108.648 157.155 110.274 158.276 109.04C150.877 113.357 145.832 114.422 142.413 118.402C139.33 121.99 135.518 124.345 131.37 126.251C128.175 127.709 125.036 128.942 122.401 131.689C120.159 134.1 116.684 136.23 113.488 136.735C109.789 137.351 108.275 139.986 106.089 142.004C103.343 144.471 100.932 147.33 98.634 149.797C93.5891 149.18 92.1877 153.385 88.8245 155.908C87.3671 155.964 85.3491 156.076 82.7706 156.244C79.2392 158.094 76.7728 162.019 72.1203 163.756C68.0283 165.27 65.3377 170.204 61.8063 173.455C60.7973 174.408 59.1156 174.576 57.8264 175.305C54.7995 176.931 51.212 178.052 48.9137 180.407C46.2792 183.098 42.2433 183.714 40.1693 186.069C35.9652 190.89 28.9584 191.619 25.539 197.281C20.0457 196.104 16.3461 200.645 11.4694 201.598C8.61061 206.251 3.34149 207.709 -0.974697 210.007C-4.67429 212.026 -8.76625 214.604 -13.643 214.044C-14.3156 213.988 -15.1565 215.445 -16.1094 216.398C-17.1744 215.501 -18.2395 214.661 -19.3605 213.707C-20.9301 214.661 -22.5556 216.398 -24.2373 216.398C-25.9189 216.398 -27.6566 214.717 -29.3382 213.707C-30.3472 214.604 -31.5244 215.67 -32.8697 216.903C-35.5603 215.726 -38.1388 213.988 -40.9415 213.595C-43.6321 213.203 -45.6501 211.633 -47.8362 210.96C-52.8811 209.447 -55.9641 207.26 -56.6367 201.878C-56.7488 201.038 -58.0941 200.421 -58.7668 199.58C-58.935 199.356 -58.7668 198.851 -58.7668 198.459C-58.0381 197.73 -57.2533 196.945 -56.5246 196.216C-57.5897 194.646 -58.5986 193.077 -60 191.002C-58.7107 189.321 -57.5336 187.751 -56.1322 185.957V176.819C-55.0112 175.642 -53.9461 174.464 -52.9371 173.343C-54.6188 167.288 -48.1165 163.14 -49.3497 157.253C-49.4057 156.973 -48.5088 156.581 -48.2846 156.132C-45.594 150.918 -42.9034 145.648 -40.2688 140.379C-40.0446 139.93 -40.437 139.033 -40.2128 138.865C-32.5333 133.203 -32.4212 122.271 -24.6857 116.665C-24.4615 112.516 -21.4906 109.489 -20.0332 105.901C-18.7439 102.817 -15.2686 101.192 -14.2035 97.099C-13.3067 93.6792 -8.76626 91.6049 -7.58912 87.12C-6.80435 83.9805 -2.99266 82.3548 -1.64735 78.4304C-0.245991 74.394 4.40653 71.4788 7.48952 68.2832V62.1725C11.021 58.6406 14.8326 54.3239 19.2049 50.5677C23.6332 46.8116 24.0256 40.1963 29.3507 37.3932C29.631 34.7022 29.9113 32.1795 30.1916 29.7688C32.2095 28.9279 34.0033 28.143 35.797 27.4703C39.6087 26.0127 37.9271 19.7337 41.6267 19.4534C46.3352 19.061 46.7276 14.2958 50.7635 13.567C52.5573 17.0988 54.6313 21.3035 57.4901 26.9657C60.0686 24.3869 62.1986 22.2565 64.2166 20.2383C64.5529 22.5368 65.0014 25.452 65.5619 29.2642C69.5418 25.452 72.849 22.3126 76.3244 18.9489C77.6136 19.2853 79.071 19.6777 82.154 20.4625C78.4544 22.7611 75.8759 24.4429 74.3064 25.396V30.3294C71.2794 33.3568 68.2525 36.3841 65.0574 39.5796V45.7464C61.526 48.8298 57.9946 51.9132 54.9116 54.6602C55.8084 58.1921 54.4631 59.6497 53.0618 61.3316C51.8846 62.7331 51.6604 64.9195 51.0438 66.6575C49.6424 66.7696 48.6335 66.8256 47.2882 66.9378C46.3352 68.956 45.2702 71.1424 44.2612 73.2727H40.898C39.8329 75.4592 38.9361 77.7577 37.5347 79.7759C36.3576 81.5138 33.4988 82.6911 33.3306 84.3169C32.9943 87.2321 31.5929 88.97 29.7431 90.8761C25.483 95.249 20.2699 98.949 18.4762 105.284C14.2721 107.246 14.16 112.011 11.8057 115.263C10.068 117.618 10.2922 121.206 7.2653 122.943C4.79891 124.345 5.19129 127.877 3.73388 129.335C-5.06667 138.08 -7.02857 150.582 -14.0914 160.225C-13.8112 166.896 -20.0332 172.278 -17.2865 180.407C-16.726 181.023 -15.3246 182.537 -13.8672 184.163C-13.1385 183.883 -12.2416 183.771 -11.6811 183.266C-7.42096 179.678 -1.19891 179.846 2.55673 175.417C6.31238 176.763 7.43346 171.885 10.6846 172.054C13.8797 172.222 15.0569 169.307 16.6824 167.513C18.8686 165.102 22.6803 166.167 24.5861 163.196C25.5951 161.57 27.557 159.776 29.2947 159.552C32.9943 159.103 34.3956 156.076 36.5818 154.058C38.5437 152.264 41.3464 153.217 43.3644 150.918C45.1581 148.9 49.138 149.236 50.8756 146.265C52.3331 143.742 55.2479 144.023 57.378 142.789C61.7502 140.267 63.2637 133.763 69.5978 133.876C72.905 130.568 76.2683 127.26 79.1831 124.345H86.0218C89.4411 120.196 93.477 115.375 96.5039 111.731C99.5869 111.563 101.269 111.843 101.549 111.339C103.343 108.311 107.659 109.377 109.228 106.854C111.863 102.481 117.636 102.873 120.327 99.0051C123.13 95.0247 128.959 95.8656 131.594 91.2686C132.603 89.4746 135.742 88.8018 137.984 87.7927C145.832 84.2048 153.623 80.5608 158.5 73.3849C159.565 73.3849 160.182 73.553 160.63 73.3849C179.072 64.1347 197.514 54.8284 217.133 44.9615H225.149C226.382 43.8403 227.559 42.8312 228.848 41.71H247.739C251.382 45.0737 255.642 48.101 256.876 53.5951C257.044 54.2678 259.566 54.3799 261.08 54.7724C263.434 58.08 261.696 61.8361 262.201 65.368C261.136 66.5453 260.071 67.6666 258.95 68.8439V75.0107C257.829 76.244 256.764 77.4213 255.811 78.4865C255.811 80.2244 256.371 82.1866 255.698 83.3639C253.737 86.7836 253.288 91.1564 249.869 93.6792C247.178 95.6975 247.066 99.1172 245.216 101.248C242.806 103.995 243.03 107.863 239.891 110.386C237.313 112.46 236.079 116.104 234.118 119.019C231.595 122.775 228.961 126.475 226.27 130.063C223.523 133.651 222.402 138.304 218.534 141.276C216.685 142.677 217.862 146.377 215.059 147.723C214.891 152.432 211.079 154.674 208.164 157.814V163.981C205.978 166.279 203.792 168.578 202.951 169.475C201.438 172.838 200.597 174.632 201.158 173.511C199.084 176.651 198.579 177.043 198.523 177.492C198.467 181.696 198.523 185.901 198.523 189.769C200.317 191.563 201.774 193.077 203.288 194.534C204.465 193.469 205.586 192.404 206.707 191.339C210.631 192.012 213.49 189.433 216.685 188.592C220.104 187.695 222.01 184.051 226.438 184.667C229.353 185.116 233.389 183.098 235.687 180.855C238.434 178.276 242.974 179.23 244.656 175.417H255.811C255.082 176.651 254.353 177.884 253.681 179.173C253.232 180.014 252.952 180.911 253.008 181.808H244.712C239.05 187.022 239.162 187.134 242.358 192.348C242.75 185.116 250.598 186.91 252.952 181.808C253.568 181.808 254.633 181.696 255.642 181.808C257.548 182.089 258.613 181.023 258.838 179.398C259.062 177.267 258.725 175.193 255.698 175.417C256.259 171.998 258.725 170.372 261.528 169.082C264.611 167.681 268.367 167.12 270.665 164.878C273.356 162.299 277.84 163.364 279.522 159.552C283.726 161.402 284.903 154.562 289.219 156.132C289.724 156.3 291.125 153.946 291.798 153.161H303.457C303.064 154.058 302.728 155.74 302.336 155.74C298.356 155.908 296.17 158.487 293.815 161.906C298.524 163.364 303.233 162.411 306.988 162.691C311.529 160.393 315.396 158.375 319.32 156.356V161.009C315.677 162.523 312.145 164.149 309.791 167.513C311.697 170.091 315.116 169.923 316.686 168.914C320.946 166.111 327.448 166.055 328.906 159.552C334.175 160.617 337.202 155.796 341.63 154.618C341.742 154.618 341.63 153.665 341.181 153.385C343.199 152.88 345.666 153.105 343.536 150.302C342.807 151.143 342.078 152.04 341.181 153.385C339.164 153.217 336.697 153.217 334.175 153.217C332.045 155.011 329.298 156.3 328.906 159.608H324.87C322.74 158.375 321.058 157.421 319.376 156.412C319.376 153.834 319.376 151.255 319.376 148.676C323.076 146.433 321.787 140.995 325.71 138.921C328.569 137.463 331.428 136.062 334.231 134.604C337.538 138.304 333.67 139.93 332.101 142.173C332.101 143.742 332.101 145.256 332.549 146.602C330.531 147.106 328.065 146.882 330.195 149.685C330.924 148.844 331.652 147.947 332.549 146.602L332.661 146.545ZM214.386 86.223C212.219 87.4938 211.602 89.5307 212.537 92.3337C215.956 91.1564 213.826 88.2973 213.49 86.6154C215.956 85.8866 218.422 86.1669 216.236 83.3639C215.507 84.2048 214.779 85.1018 214.33 86.2791L214.386 86.223ZM286.08 162.579C282.605 166.055 278.905 169.755 275.205 173.511C275.093 173.623 275.486 174.24 275.878 174.969H282.717C285.632 172.334 288.322 169.811 291.125 167.288C290.732 165.663 290.34 164.261 290.004 162.972C288.546 162.803 287.537 162.691 286.136 162.579H286.08ZM266.349 179.117C264.779 181.92 264.779 184.724 266.685 188.143C268.255 187.863 269.992 187.583 272.235 187.19C270.609 185.452 269.544 184.387 268.479 183.266C268.292 181.397 267.563 180.014 266.293 179.117H266.349ZM225.541 191.227C222.851 194.478 222.851 197.618 225.541 200.869C228.232 197.618 228.232 194.478 225.541 191.227ZM253.568 198.29C255.642 195.824 257.997 194.815 258.501 192.236C256.707 190.722 254.914 190.666 252.616 192.74C252.896 194.198 253.176 195.936 253.624 198.29H253.568ZM55.6963 36.3841C56.0887 37.0568 56.425 37.7296 56.8174 38.4584C57.1537 38.122 57.8824 37.6735 57.8264 37.3932C57.6582 36.6644 57.2098 35.9356 56.8174 35.2629C56.4811 35.5992 56.0887 35.9917 55.6963 36.3841ZM12.7026 104.836C13.151 104.387 13.4873 104.051 13.8237 103.714C13.095 103.378 12.4223 102.873 11.6936 102.705C11.4133 102.649 11.021 103.322 10.6286 103.714C11.3012 104.107 12.0299 104.499 12.7026 104.836ZM281.708 180.575C282.156 181.023 282.492 181.36 282.829 181.696C283.165 180.967 283.67 180.295 283.838 179.566C283.894 179.286 283.221 178.893 282.829 178.501C282.436 179.173 282.044 179.902 281.708 180.575ZM1013.44 22.5368C1017.7 22.5368 1021.91 22.5368 1026 22.0883C1026.5 24.1066 1026.28 26.5733 1029.08 24.4429C1028.24 23.7141 1027.34 22.9853 1026 22.0883C1026.67 19.9019 1023.76 19.3413 1023.08 17.6034V11.3245C1024.65 9.75475 1026.17 8.24108 1027.68 6.72741C1028.8 7.73653 1029.92 8.74564 1031.04 9.69869C1031.77 8.96988 1032.56 8.18502 1033.4 7.34409C1036.76 5.83042 1040.4 6.67135 1043.99 6.83954C1044.78 7.6244 1045.51 8.3532 1046.51 9.36232C1047.92 8.46533 1049.43 7.51228 1051.62 6.1668C1053.02 7.06378 1054.64 8.12896 1057.61 9.979H1085.3C1086.59 11.2684 1087.32 11.9972 1088.16 12.8381H1107.11C1108.29 13.9594 1109.41 15.0246 1111.2 16.6503C1113.05 15.5852 1115.12 14.4079 1117.26 13.2306C1117.87 13.8473 1118.6 14.5761 1119.95 15.9215H1132.67C1133.96 17.211 1134.8 18.6686 1135.47 18.6125C1141.25 18.108 1145.51 23.602 1152.29 22.3126C1153.91 24.3869 1155.82 26.9097 1157.67 29.3764C1159.41 27.8066 1160.53 26.7975 1161.65 25.7884C1163.16 27.3021 1164.68 28.8158 1166.25 30.3855V37.9538C1169.22 40.3645 1172.86 43.2797 1176 45.8585C1175.72 47.9328 1175.61 48.9419 1175.44 49.951C1174.54 50.3435 1173.65 50.792 1172.75 51.1283C1172.24 51.2965 1171.35 51.3526 1171.24 51.1283C1169.33 47.5965 1164.51 48.7177 1161.99 45.0737H1148.7C1146.12 39.2432 1139 44.0085 1136.43 38.6826H1118.6C1115.24 37.8417 1114.34 34.0856 1110.7 35.375C1109.8 36.2159 1108.62 37.225 1107.39 38.2902C1106.32 37.3371 1105.2 36.272 1104.03 35.2068H1088.27C1087.1 34.1416 1085.98 33.1325 1084.97 32.2355C1083.79 33.2446 1082.67 34.1416 1081.66 35.0386C1080.71 34.0856 1079.98 33.3568 1078.69 32.0673H1034.13C1032.84 30.7779 1032.11 30.0491 1031.16 29.0961C1030.09 29.9931 1029.03 30.89 1027.74 31.9552H1011.93C1010.98 31.0582 1009.85 30.0491 1008.68 28.9839C1007.56 29.9931 1006.44 31.0582 1005.37 32.0113H999.036C997.467 30.4415 995.953 28.9279 994.496 27.4703C996.738 23.9384 1000.16 26.1809 1003.02 25.8445C1006.1 25.452 1009.24 25.7324 1012.15 25.7324C1012.71 24.3308 1013.11 23.4338 1013.44 22.5368ZM1069.33 15.9776C1066.86 18.2201 1066.86 20.3504 1069.1 22.4808C1070.51 20.6868 1072.92 19.7337 1073.42 16.7064C1071.96 16.4261 1070.56 16.2019 1069.27 15.9215L1069.33 15.9776ZM1035.3 18.7246C1035.3 18.0519 1035.25 17.3792 1035.19 16.7064C1033.79 16.5382 1032.39 16.2579 1030.93 16.2019C1030.59 16.2019 1029.87 16.9867 1029.92 17.211C1030.15 17.9398 1030.59 19.1731 1031.04 19.2292C1032.44 19.2853 1033.85 18.9489 1035.25 18.7246H1035.3ZM968.879 22.5368C967.309 22.5368 965.74 22.5368 964.114 22.5368C962.096 17.1549 958.677 12.9503 953.576 9.58656C952.399 10.0351 951.054 10.5396 949.708 11.0442C950.269 13.8473 948.699 16.5943 950.773 18.8368C952.231 19.2292 953.632 19.5656 955.089 19.958C956.211 22.5929 956.771 25.5642 959.069 27.5824C957.556 29.0961 956.099 30.5537 954.585 32.0673H932.556C930.762 34.9825 926.782 34.8144 924.54 37.169C925.269 37.8417 925.661 38.4584 926.053 38.4584C930.257 38.5144 934.461 38.4584 938.553 38.4584C939.787 37.3371 940.908 36.272 942.029 35.2629H970.392C971.626 34.1416 972.747 33.0764 973.98 31.9552C979.193 31.9552 984.462 31.9552 989.675 31.9552C990.067 31.9552 990.404 31.2825 990.684 31.0022C991.525 28.7597 991.413 26.9097 989.115 25.7884C988.105 25.9005 986.928 25.6763 986.144 26.1248C984.854 26.9097 983.845 28.087 983.229 28.6476C976.334 28.6476 970.056 28.6476 963.778 28.6476C963.386 28.6476 963.049 27.9748 962.489 27.3581C964.731 26.349 966.861 25.3399 968.991 24.3869C968.991 23.8263 968.991 23.2096 968.935 22.649L968.879 22.5368ZM672.799 106.854C675.21 104.443 677.452 105.62 679.414 105.284C681.376 104.948 683.674 106.125 685.524 103.602C683.954 101.808 682.329 99.9581 681.432 98.893C678.405 98.893 676.555 98.3324 675.266 99.0051C671.734 100.743 668.427 102.985 665.064 105.116C664.391 105.564 664.111 106.517 663.663 107.302C667.642 109.937 666.69 113.469 665.849 116.833C664.952 118.066 664.223 119.019 663.438 120.084C666.129 121.766 667.586 120.813 669.604 119.86C673.977 117.73 677.9 113.974 683.45 114.758C684.066 114.815 684.851 113.525 685.748 112.684C685.356 111.395 684.907 109.993 684.235 107.807C680.759 109.377 677.676 110.778 673.752 112.572C673.304 109.937 673.024 108.143 672.799 106.798V106.854ZM979.753 6.8956C978.464 8.18502 977.007 9.64263 975.381 11.2684C976.334 12.3336 977.231 13.3988 978.184 14.4639C974.596 16.5382 969.888 17.4352 968.879 22.5368C971.513 22.5368 974.092 22.5368 976.726 22.5368C977.848 21.5277 978.969 20.4625 980.034 19.4534C981.155 20.5186 982.332 21.5277 983.341 22.4808C989.787 22.4808 996.065 22.4808 1002.34 22.4808C1002.74 22.4808 1003.07 21.808 1003.46 21.4156C1001.89 18.6125 1000.38 15.7534 998.868 13.0063C997.691 13.1185 996.682 13.2306 995.393 13.3427C994.776 15.0246 994.159 16.8746 993.431 18.8928C990.516 17.4913 987.657 16.0337 984.854 14.6882V9.81081C983.173 8.85776 981.547 7.90471 979.809 6.8956H979.753ZM931.435 19.0049C930.594 16.4822 930.033 14.6882 929.473 13.0063C926.95 13.0063 924.876 13.0063 922.746 13.0063C921.401 14.8564 918.766 15.7534 918.542 18.5004C920.056 19.958 921.569 21.3595 922.802 22.4808C925.605 23.0414 928.408 21.4717 930.426 23.9384C929.192 25.396 928.632 26.6854 928.464 28.4794C932.443 28.9279 936.423 29.8249 940.796 27.19C939.45 24.5551 938.217 21.9762 936.984 19.5095C935.022 19.3413 933.06 19.1731 931.435 19.0049ZM749.146 72.7121C749.426 74.8425 749.426 76.9168 752.397 76.6925C752.733 74.7864 751.556 72.6561 754.022 70.3015H768.316C766.691 66.9938 765.009 63.6862 763.215 60.0422C757.049 63.1816 751.556 65.9286 746.063 68.7878C745.838 68.8999 746.063 69.7409 746.063 70.3015C748.024 69.9651 748.977 71.1424 749.202 72.7121H749.146ZM738.159 70.3015C737.038 71.3666 735.917 72.4318 734.796 73.497C732.722 73.497 730.648 73.497 728.518 73.497C726.443 77.4213 720.726 75.9637 718.708 80.0562C718.372 80.729 718.203 81.5138 717.755 82.6351H727.733C728.461 81.4017 730.031 78.7107 731.601 76.0758C737.991 78.3183 741.186 72.8242 745.95 70.3015H738.103H738.159ZM569.435 130.736C568.202 131.857 567.081 132.922 566.128 133.819C563.437 134.492 560.578 132.754 558.504 135.277C558.392 135.389 558.841 136.006 559.065 136.51C561.924 137.015 564.839 137.52 567.641 138.024V141.836C566.632 142.901 565.623 144.079 563.942 145.873C566.296 146.209 568.09 146.433 570.22 146.714C572.014 142.229 568.987 137.576 572.182 134.156C573.807 133.483 576.386 134.941 576.778 131.521C574.48 129.951 571.733 131.128 569.323 130.736H569.435ZM411.25 190.834C412.427 187.527 413.324 185.06 414.893 180.855C411.418 182.93 408.391 180.183 405.7 183.042C405.588 184.051 405.14 185.284 405.476 186.013C406.149 187.358 407.326 188.424 408.503 189.769C406.429 190.722 404.299 191.731 402.001 192.74C411.137 195.039 412.483 195.039 418.088 192.74C418.256 192.684 418.088 191.731 418.088 191.339C416.126 191.171 414.164 191.002 411.193 190.722L411.25 190.834ZM1019.94 17.0988C1018.94 15.1927 1021.12 12.2775 1018.6 10.1472C1015.01 13.3427 1009.01 13.0624 1006.94 18.9489C1007.33 20.0141 1007.89 21.3595 1008.4 22.5368H1013.44C1012.88 17.4352 1018.99 20.855 1019.94 17.0988ZM543.258 136.51C542.529 135.782 541.744 134.997 541.016 134.268C539.11 135.613 537.148 136.847 536.475 139.314C536.924 139.706 537.316 140.323 537.708 140.323C541.912 140.379 546.172 140.323 550.32 140.323C551.89 138.753 553.404 137.239 555.365 135.277C550.04 132.306 546.845 135.277 543.314 136.454L543.258 136.51ZM913.161 41.5978C914.562 41.71 916.02 41.2615 918.15 40.9812C917.701 38.6826 917.365 36.9447 917.029 35.3189C914.226 35.3189 912.096 35.3189 910.022 35.3189C908.901 36.3841 907.78 37.4493 906.658 38.5144C905.369 39.3554 902.342 37.1129 902.567 40.7569C905.986 42.607 909.629 41.4297 913.161 41.6539V41.5978ZM768.092 71.8151C767.812 72.9924 765.85 73.8334 764.953 74.5622C765.682 77.6456 764 80.4486 766.298 82.579C767.307 82.6911 768.316 82.8593 770.11 83.0836C771.511 81.7941 773.249 80.1683 774.426 79.1032C772.576 75.4031 771.231 72.8242 769.942 70.3015C768.316 69.7409 768.428 70.4136 768.148 71.8151H768.092ZM841.243 30.2173C841.579 32.0113 841.916 33.4128 842.196 34.8144C846.624 35.0947 850.66 36.272 854.304 33.7492V30.0491C850.044 28.1991 845.783 28.1991 841.299 30.2173H841.243ZM815.514 59.2012C813.944 57.2951 812.655 55.7815 812.375 55.4451C809.965 56.7906 807.722 57.9679 806.489 58.6406C806.489 62.3968 806.994 64.1347 811.646 63.8544C812.151 61.7801 815.402 61.4437 815.514 59.2012ZM480.645 169.082C480.028 169.082 479.468 170.204 478.907 170.82C480.869 172.222 481.822 174.913 484.569 175.361C489.782 175.473 487.876 171.605 488.212 168.97C485.69 168.97 483.167 168.858 480.645 169.026V169.082ZM857.387 27.0778C857.667 28.6476 857.947 30.3855 858.34 32.628C860.077 31.0022 861.142 29.937 862.207 28.9279C863.833 28.4794 866.355 30.0491 866.467 26.7415C863.609 25.1717 860.806 25.1717 857.387 27.0778ZM935.975 16.5382C937.488 17.0428 936.087 20.0701 938.666 19.3413C939.955 17.4352 942.701 16.5943 942.758 13.3427H933.172C934.686 15.1367 935.19 16.2579 935.975 16.5382ZM58.9475 6.05467C60.4049 6.33498 61.8063 6.55923 63.5439 6.8956C64.1045 4.42888 67.4117 4.14857 67.5238 0.840927C66.0664 0.560618 64.665 0.336371 62.9273 0C62.3668 2.46672 59.0596 2.74703 58.9475 6.05467ZM431.093 177.828C430.7 175.642 430.364 173.848 429.972 171.885C427.842 172.278 426.44 172.558 424.815 172.895V179.061C427.617 178.557 429.019 178.276 431.093 177.884V177.828ZM904.977 20.6307C901.726 18.5004 898.643 18.164 893.99 22.4808C898.923 22.5929 902.585 21.9762 904.977 20.6307ZM876.501 24.1066C879.752 26.7975 882.891 26.7975 886.143 24.1066C882.891 21.4156 879.752 21.4156 876.501 24.1066ZM758.787 83.3078C758.395 80.5047 759.964 78.3183 756.881 76.6365C755.424 76.6365 753.91 76.6365 752.397 76.6365C752.845 79.7198 755.143 81.2335 758.787 83.3078ZM549.648 144.023C548.19 145.929 548.078 147.667 550.264 149.965C551.666 149.685 553.46 149.349 557.664 148.508C552.843 147.442 552.563 144.135 549.648 144.079V144.023ZM170.384 154.002C170.888 152.656 173.691 154.002 173.018 151.535C171.112 149.18 169.094 149.18 166.74 151.311C166.852 152.544 166.964 153.89 167.189 157.253C169.038 155.403 170.103 154.787 170.384 153.946V154.002ZM493.986 150.806C492.136 149.405 490.398 149.293 488.1 151.423C488.38 152.824 488.717 154.618 489.221 157.029C491.071 154.338 493.65 153.441 493.986 150.806ZM159.733 174.857C159.902 173.455 160.182 172.054 160.238 170.596C160.238 170.26 159.453 169.531 159.229 169.587C158.5 169.811 157.267 170.26 157.211 170.708C157.155 172.11 157.491 173.511 157.715 174.913L159.733 174.801V174.857ZM305.643 150.021C304.69 150.47 304.242 152.04 303.513 153.105C304.97 153.105 306.54 153.497 307.773 152.993C308.726 152.544 309.174 150.974 309.903 149.909C308.446 149.909 306.876 149.517 305.643 150.021ZM622.406 123.84C623.808 124.009 625.209 124.289 626.667 124.345C627.003 124.345 627.732 123.56 627.676 123.336C627.451 122.607 627.003 121.374 626.555 121.318C625.153 121.262 623.752 121.598 622.35 121.822C622.35 122.495 622.407 123.168 622.463 123.84H622.406ZM204.857 95.7535C202.895 95.4171 201.886 96.5944 201.718 98.1642C201.494 100.295 201.83 102.369 204.857 102.145V95.7535ZM799.595 60.2104C799.763 58.8088 800.043 57.4073 800.099 55.9497C800.099 55.6133 799.314 54.8845 799.09 54.9405C798.361 55.1648 797.128 55.6133 797.072 56.0618C797.016 57.4633 797.352 58.8649 797.577 60.2664C798.249 60.2664 798.922 60.2103 799.595 60.1543V60.2104ZM781.04 55.9497C778.91 53.6511 776.78 53.6511 774.65 55.9497C776.78 58.2482 778.91 58.2482 781.04 55.9497ZM832.386 34.1416C834.236 35.8795 836.03 35.7674 838.608 33.6931C835.694 31.6188 833.676 30.7219 832.386 34.1416ZM1004.25 8.68958C1006.1 10.4275 1007.89 10.3154 1010.47 8.24108C1007.56 6.1668 1005.54 5.26981 1004.25 8.68958ZM986.648 6.8956C985.919 7.73653 985.191 8.63351 983.901 10.1472C986.368 9.41838 988.834 9.69869 986.648 6.8956ZM80.6966 11.3805C79.9679 11.0442 79.2952 10.5396 78.5665 10.3714C78.2863 10.3154 77.8939 10.9881 77.5015 11.3805C78.1741 11.773 78.9028 12.1654 79.5755 12.5018C80.0239 12.0533 80.3603 11.7169 80.6966 11.3805ZM893.766 25.452C894.495 24.6111 895.223 23.7141 896.513 22.2005C894.046 22.9293 891.58 22.649 893.766 25.452ZM951.334 22.5368C950.998 23.2656 950.493 23.9384 950.325 24.6672C950.269 24.9475 950.941 25.3399 951.334 25.7324C951.726 25.0596 952.119 24.3308 952.455 23.6581C952.006 23.2096 951.67 22.8732 951.334 22.5368ZM890.851 32.0673C890.515 32.7961 890.01 33.4689 889.842 34.1977C889.786 34.478 890.459 34.8704 890.851 35.2629C891.244 34.5901 891.636 33.8613 891.972 33.1886C891.524 32.7401 891.187 32.4037 890.851 32.0673ZM867.589 39.5236C867.757 40.2524 868.205 40.9812 868.598 41.6539C868.934 41.3175 869.663 40.869 869.607 40.5887C869.438 39.8599 868.99 39.1311 868.598 38.4584C868.261 38.7948 867.532 39.2432 867.589 39.5236ZM856.153 45.1297C855.425 45.9707 854.696 46.8676 853.407 48.3813C855.873 47.6525 858.34 47.9328 856.153 45.1297ZM852.398 50.9041C853.127 50.0632 853.855 49.1662 855.144 47.6525C852.678 48.3813 850.212 48.101 852.398 50.9041ZM787.711 65.1999C788.552 65.9287 789.449 66.6575 790.962 67.9469C790.233 65.4802 790.514 63.0134 787.711 65.1999ZM774.706 68.6757C775.435 69.012 776.108 69.5166 776.836 69.6848C777.117 69.7409 777.509 69.0681 777.901 68.6757C777.229 68.2832 776.5 67.8908 775.827 67.5544C775.379 68.0029 775.043 68.3393 774.706 68.6757ZM793.485 69.0121C792.644 68.2832 791.747 67.5544 790.233 66.265C790.962 68.7317 790.682 71.1985 793.485 69.0121ZM709.403 89.4185C709.739 88.6897 710.244 88.017 710.412 87.2882C710.468 87.0079 709.795 86.6154 709.403 86.223C709.011 86.8958 708.618 87.6246 708.282 88.2973C708.73 88.7458 709.067 89.0822 709.403 89.4185ZM736.477 87.7927C736.814 88.1291 737.262 88.8579 737.542 88.8019C738.271 88.6337 739 88.1852 739.672 87.7927C739.336 87.4564 738.944 87.0639 738.551 86.6715C737.879 87.0639 737.206 87.4003 736.477 87.7927ZM699.874 92.558C700.21 92.2216 700.939 91.7731 700.883 91.4928C700.715 90.764 700.266 90.0352 699.874 89.3625C699.537 89.6988 699.145 90.0913 698.753 90.4837C699.145 91.1564 699.481 91.8292 699.874 92.558ZM731.713 92.558C732.049 91.8292 732.553 91.1564 732.722 90.4276C732.778 90.1473 732.105 89.7549 731.713 89.3625C731.32 90.0352 730.928 90.764 730.591 91.4368C731.04 91.8853 731.376 92.2216 731.713 92.558ZM648.92 114.871C649.257 114.142 649.761 113.469 649.929 112.74C649.985 112.46 649.313 112.067 648.92 111.675C648.528 112.348 648.135 113.077 647.799 113.749C648.248 114.198 648.584 114.534 648.92 114.871ZM577.339 138.753C576.61 138.417 575.937 137.912 575.209 137.744C574.928 137.688 574.536 138.36 574.144 138.753C574.816 139.145 575.545 139.538 576.218 139.874C576.666 139.426 577.002 139.089 577.339 138.753ZM311.809 146.994C311.08 147.835 310.352 148.732 309.062 150.246C311.529 149.517 313.995 149.797 311.809 146.994ZM518.426 149.909C518.089 150.246 517.361 150.694 517.417 150.974C517.585 151.703 518.033 152.432 518.426 153.105C518.762 152.768 519.154 152.376 519.547 151.983C519.154 151.311 518.818 150.638 518.426 149.909ZM490.062 166.111C489.333 166.952 488.605 167.849 487.315 169.363C489.782 168.634 492.248 168.914 490.062 166.111ZM465.903 176.931C465.174 176.595 464.501 176.09 463.773 175.922C463.492 175.866 463.1 176.539 462.707 176.931C463.38 177.323 464.109 177.716 464.781 178.052C465.23 177.604 465.566 177.267 465.903 176.931ZM395.835 189.713C396.171 190.049 396.619 190.778 396.9 190.722C397.628 190.554 398.357 190.105 399.03 189.713C398.693 189.377 398.301 188.984 397.909 188.592C397.236 188.984 396.563 189.321 395.835 189.713ZM420.05 188.368C419.321 189.208 418.593 190.105 417.303 191.619C419.77 190.89 422.236 191.171 420.05 188.368ZM653.685 110.105C654.021 110.442 654.47 111.171 654.75 111.114C655.479 110.946 656.207 110.498 656.88 110.105C656.544 109.769 656.151 109.377 655.759 108.984C655.086 109.377 654.414 109.713 653.685 110.105Z" fill="#F0F7FF"/>
</svg>
