<svg width="1236" height="220" viewBox="0 0 1236 220" fill="none" xmlns="http://www.w3.org/2000/svg">
<path d="M392.661 146.545C394.847 147.218 395.408 144.303 397.65 143.462H406.619C407.46 142.621 408.188 141.892 409.197 140.883C412.953 140.21 416.989 139.594 421.137 141.892C416.652 144.135 412.448 146.265 408.188 148.396C410.543 151.255 413.457 149.124 415.7 150.19C417.045 148.9 418.222 147.835 419.399 146.77H425.677C427.191 145.256 428.704 143.742 430.106 142.341C428.928 140.267 427.751 138.192 426.686 136.342C430.386 132.194 432.628 134.548 435.038 137.071C436.103 136.118 437.224 135.165 438.346 134.212C439.018 134.829 439.803 135.501 440.7 136.286C443.895 138.248 447.651 136.735 451.182 137.239C452.527 141.948 457.516 145.48 455.61 151.03C456.9 152.432 457.965 153.553 459.086 154.787V167.457C460.599 168.914 462.113 170.428 463.794 172.054H469.848C471.081 173.175 472.202 174.184 473.604 175.417C475.678 176.651 479.433 173.119 481.339 177.996C475.285 179.117 469.512 178.22 463.458 178.669C462.841 180.407 462.225 182.257 461.552 184.051C455.386 187.022 451.406 181.64 446.361 180.126V157.814C443.11 155.291 441.092 151.311 436.552 149.293C434.926 150.526 433.357 151.759 431.675 153.105H422.426C420.464 155.067 418.614 156.917 416.26 159.272C410.823 157.478 406.731 163.813 400.004 162.411C398.547 164.709 396.865 167.457 395.912 168.914H384.645C380.946 172.222 377.583 175.529 373.883 178.389C371.977 179.846 369.118 181.92 367.381 181.416C361.607 179.734 358.58 188.255 353.143 184.331C351.517 185.845 350.396 186.91 349.163 188.031H342.829C340.25 190.666 337.84 193.525 334.925 195.824C332.627 197.618 329.712 198.627 325.9 200.589H318.501C314.521 202.832 311.102 204.85 307.01 207.148H301.461L295.463 213.147H286.55C285.205 214.212 283.972 215.109 282.29 216.455H273.826C270.687 219.089 267.492 220.435 263.456 219.874C262.447 218.977 261.27 217.968 259.98 216.791H244.397C243.556 216.006 242.772 215.333 241.819 214.436C238.624 212.474 234.868 213.988 231.224 213.483C229.711 211.297 227.469 210.568 224.834 209.895C223.097 209.503 220.63 207.148 220.518 205.579C220.35 202.607 219.005 200.757 217.155 199.356V187.527C219.005 183.883 220.35 181.248 221.751 178.613C223.377 175.585 225.899 172.67 226.404 169.475C226.908 166.223 231.112 164.934 229.823 161.29C232.514 159.159 233.579 156.468 233.018 153.049C237.334 153.385 235.316 149.236 236.886 147.667C239.857 144.639 242.94 141.78 245.855 138.921C245.855 137.576 245.462 135.894 245.911 135.613C248.994 133.876 248.041 129.559 250.395 127.933C255.384 124.569 255.16 117.562 260.429 114.534C261.326 110.161 266.09 107.19 264.913 102.088C266.875 102.425 267.884 101.248 268.052 99.6778C268.276 97.5475 267.94 95.4732 264.913 95.6975V90.9883C265.978 89.811 266.987 88.7458 267.996 87.5685C267.043 87.0639 266.202 86.5594 265.306 86.1109C260.597 83.9245 258.243 90.0913 253.927 89.3064C252.245 92.3337 248.713 92.1095 246.191 93.6792C244.117 94.9687 241.875 95.9778 239.633 97.099C238.343 97.7717 236.998 98.4445 235.597 98.8369C226.908 101.36 225.058 102.257 220.014 107.19C218.5 108.648 217.155 110.274 218.276 109.04C210.877 113.357 205.832 114.422 202.413 118.402C199.33 121.99 195.518 124.345 191.37 126.251C188.175 127.709 185.036 128.942 182.401 131.689C180.159 134.1 176.684 136.23 173.488 136.735C169.789 137.351 168.275 139.986 166.089 142.004C163.343 144.471 160.932 147.33 158.634 149.797C153.589 149.18 152.188 153.385 148.824 155.908C147.367 155.964 145.349 156.076 142.771 156.244C139.239 158.094 136.773 162.019 132.12 163.756C128.028 165.27 125.338 170.204 121.806 173.455C120.797 174.408 119.116 174.576 117.826 175.305C114.799 176.931 111.212 178.052 108.914 180.407C106.279 183.098 102.243 183.714 100.169 186.069C95.9652 190.89 88.9584 191.619 85.539 197.281C80.0457 196.104 76.3461 200.645 71.4694 201.598C68.6106 206.251 63.3415 207.709 59.0253 210.007C55.3257 212.026 51.2337 214.604 46.357 214.044C45.6844 213.988 44.8435 215.445 43.8906 216.398C42.8256 215.501 41.7605 214.661 40.6395 213.707C39.0699 214.661 37.4444 216.398 35.7627 216.398C34.0811 216.398 32.3434 214.717 30.6618 213.707C29.6528 214.604 28.4756 215.67 27.1303 216.903C24.4397 215.726 21.8612 213.988 19.0585 213.595C16.3679 213.203 14.3499 211.633 12.1638 210.96C7.11891 209.447 4.03592 207.26 3.36327 201.878C3.25116 201.038 1.90585 200.421 1.2332 199.58C1.06503 199.356 1.2332 198.851 1.2332 198.459C1.9619 197.73 2.74667 196.945 3.47537 196.216C2.41034 194.646 1.40136 193.077 0 191.002C1.28925 189.321 2.46639 187.751 3.86775 185.957V176.819C4.98884 175.642 6.05388 174.464 7.06286 173.343C5.38122 167.288 11.8835 163.14 10.6503 157.253C10.5943 156.973 11.4912 156.581 11.7154 156.132C14.406 150.918 17.0966 145.648 19.7312 140.379C19.9554 139.93 19.563 139.033 19.7872 138.865C27.4667 133.203 27.5788 122.271 35.3143 116.665C35.5385 112.516 38.5094 109.489 39.9668 105.901C41.2561 102.817 44.7314 101.192 45.7965 97.099C46.6933 93.6792 51.2337 91.6049 52.4109 87.12C53.1956 83.9805 57.0073 82.3548 58.3526 78.4304C59.754 74.394 64.4065 71.4788 67.4895 68.2832V62.1725C71.021 58.6406 74.8327 54.3239 79.2049 50.5677C83.6332 46.8116 84.0256 40.1963 89.3507 37.3932C89.631 34.7022 89.9113 32.1795 90.1916 29.7688C92.2095 28.9279 94.0033 28.143 95.797 27.4703C99.6087 26.0127 97.9271 19.7337 101.627 19.4534C106.335 19.061 106.728 14.2958 110.764 13.567C112.557 17.0988 114.631 21.3035 117.49 26.9657C120.069 24.3869 122.199 22.2565 124.217 20.2383C124.553 22.5368 125.001 25.452 125.562 29.2642C129.542 25.452 132.849 22.3126 136.324 18.9489C137.614 19.2853 139.071 19.6777 142.154 20.4625C138.454 22.7611 135.876 24.4429 134.306 25.396V30.3294C131.279 33.3568 128.253 36.3841 125.057 39.5796V45.7464C121.526 48.8298 117.995 51.9132 114.912 54.6602C115.808 58.1921 114.463 59.6497 113.062 61.3316C111.885 62.7331 111.66 64.9195 111.044 66.6575C109.642 66.7696 108.633 66.8256 107.288 66.9378C106.335 68.956 105.27 71.1424 104.261 73.2727H100.898C99.8329 75.4592 98.9361 77.7577 97.5347 79.7759C96.3575 81.5138 93.4988 82.6911 93.3306 84.3169C92.9943 87.2321 91.5929 88.97 89.7431 90.8761C85.483 95.249 80.2699 98.949 78.4762 105.284C74.2721 107.246 74.16 112.011 71.8057 115.263C70.068 117.618 70.2922 121.206 67.2653 122.943C64.7989 124.345 65.1913 127.877 63.7339 129.335C54.9333 138.08 52.9714 150.582 45.9086 160.225C46.1888 166.896 39.9668 172.278 42.7135 180.407C43.274 181.023 44.6754 182.537 46.1328 184.163C46.8615 183.883 47.7584 183.771 48.3189 183.266C52.579 179.678 58.8011 179.846 62.5567 175.417C66.3124 176.763 67.4335 171.885 70.6846 172.054C73.8797 172.222 75.0569 169.307 76.6824 167.513C78.8686 165.102 82.6803 166.167 84.5861 163.196C85.5951 161.57 87.557 159.776 89.2947 159.552C92.9943 159.103 94.3956 156.076 96.5818 154.058C98.5437 152.264 101.346 153.217 103.364 150.918C105.158 148.9 109.138 149.236 110.876 146.265C112.333 143.742 115.248 144.023 117.378 142.789C121.75 140.267 123.264 133.763 129.598 133.876C132.905 130.568 136.268 127.26 139.183 124.345H146.022C149.441 120.196 153.477 115.375 156.504 111.731C159.587 111.563 161.269 111.843 161.549 111.339C163.343 108.311 167.659 109.377 169.228 106.854C171.863 102.481 177.636 102.873 180.327 99.0051C183.13 95.0247 188.959 95.8656 191.594 91.2686C192.603 89.4746 195.742 88.8019 197.984 87.7927C205.832 84.2048 213.623 80.5608 218.5 73.3849C219.565 73.3849 220.182 73.5531 220.63 73.3849C239.072 64.1347 257.514 54.8284 277.133 44.9615H285.149C286.382 43.8403 287.559 42.8312 288.848 41.71H307.739C311.382 45.0737 315.642 48.101 316.876 53.5951C317.044 54.2678 319.566 54.3799 321.08 54.7724C323.434 58.08 321.696 61.8361 322.201 65.368C321.136 66.5453 320.071 67.6666 318.95 68.8439V75.0107C317.829 76.244 316.764 77.4213 315.811 78.4865C315.811 80.2244 316.371 82.1866 315.698 83.3639C313.737 86.7836 313.288 91.1564 309.869 93.6792C307.178 95.6975 307.066 99.1172 305.216 101.248C302.806 103.995 303.03 107.863 299.891 110.386C297.313 112.46 296.079 116.104 294.118 119.019C291.595 122.775 288.961 126.475 286.27 130.063C283.523 133.651 282.402 138.304 278.534 141.276C276.685 142.677 277.862 146.377 275.059 147.723C274.891 152.432 271.079 154.674 268.164 157.814V163.981C265.978 166.279 263.792 168.578 262.951 169.475C261.438 172.838 260.597 174.632 261.158 173.511C259.084 176.651 258.579 177.043 258.523 177.492C258.467 181.696 258.523 185.901 258.523 189.769C260.317 191.563 261.774 193.077 263.288 194.534C264.465 193.469 265.586 192.404 266.707 191.339C270.631 192.012 273.49 189.433 276.685 188.592C280.104 187.695 282.01 184.051 286.438 184.667C289.353 185.116 293.389 183.098 295.687 180.855C298.434 178.276 302.974 179.23 304.656 175.417H315.811C315.082 176.651 314.353 177.884 313.681 179.173C313.232 180.014 312.952 180.911 313.008 181.808H304.712C299.05 187.022 299.162 187.134 302.358 192.348C302.75 185.116 310.598 186.91 312.952 181.808C313.568 181.808 314.633 181.696 315.642 181.808C317.548 182.089 318.613 181.023 318.838 179.398C319.062 177.267 318.725 175.193 315.698 175.417C316.259 171.998 318.725 170.372 321.528 169.082C324.611 167.681 328.367 167.12 330.665 164.878C333.356 162.299 337.84 163.364 339.522 159.552C343.726 161.402 344.903 154.562 349.219 156.132C349.724 156.3 351.125 153.946 351.798 153.161H363.457C363.064 154.058 362.728 155.74 362.336 155.74C358.356 155.908 356.17 158.487 353.815 161.906C358.524 163.364 363.233 162.411 366.988 162.691C371.529 160.393 375.396 158.375 379.32 156.356V161.009C375.677 162.523 372.145 164.149 369.791 167.513C371.697 170.091 375.116 169.923 376.686 168.914C380.946 166.111 387.448 166.055 388.906 159.552C394.175 160.617 397.202 155.796 401.63 154.618C401.742 154.618 401.63 153.665 401.181 153.385C403.199 152.88 405.666 153.105 403.536 150.302C402.807 151.143 402.078 152.04 401.181 153.385C399.164 153.217 396.697 153.217 394.175 153.217C392.045 155.011 389.298 156.3 388.906 159.608H384.87C382.74 158.375 381.058 157.421 379.376 156.412C379.376 153.834 379.376 151.255 379.376 148.676C383.076 146.433 381.787 140.995 385.71 138.921C388.569 137.463 391.428 136.062 394.231 134.604C397.538 138.304 393.67 139.93 392.101 142.173C392.101 143.742 392.101 145.256 392.549 146.602C390.531 147.106 388.065 146.882 390.195 149.685C390.924 148.844 391.652 147.947 392.549 146.602L392.661 146.545ZM274.386 86.223C272.219 87.4937 271.602 89.5307 272.537 92.3337C275.956 91.1565 273.826 88.2973 273.49 86.6154C275.956 85.8866 278.422 86.1669 276.236 83.3639C275.507 84.2048 274.779 85.1018 274.33 86.2791L274.386 86.223ZM346.08 162.579C342.605 166.055 338.905 169.755 335.205 173.511C335.093 173.623 335.486 174.24 335.878 174.969H342.717C345.632 172.334 348.322 169.811 351.125 167.288C350.732 165.663 350.34 164.261 350.004 162.972C348.546 162.803 347.537 162.691 346.136 162.579H346.08ZM326.349 179.117C324.779 181.92 324.779 184.724 326.685 188.143C328.255 187.863 329.992 187.583 332.235 187.19C330.609 185.452 329.544 184.387 328.479 183.266C328.292 181.397 327.563 180.014 326.293 179.117H326.349ZM285.541 191.227C282.851 194.478 282.851 197.618 285.541 200.869C288.232 197.618 288.232 194.478 285.541 191.227ZM313.568 198.29C315.642 195.824 317.997 194.815 318.501 192.236C316.707 190.722 314.914 190.666 312.616 192.74C312.896 194.198 313.176 195.936 313.624 198.29H313.568ZM115.696 36.3841C116.089 37.0568 116.425 37.7296 116.817 38.4584C117.154 38.122 117.882 37.6735 117.826 37.3932C117.658 36.6644 117.21 35.9356 116.817 35.2629C116.481 35.5992 116.089 35.9917 115.696 36.3841ZM72.7026 104.836C73.151 104.387 73.4873 104.051 73.8237 103.714C73.095 103.378 72.4223 102.873 71.6936 102.705C71.4133 102.649 71.021 103.322 70.6286 103.714C71.3012 104.107 72.0299 104.499 72.7026 104.836ZM341.708 180.575C342.156 181.023 342.493 181.36 342.829 181.696C343.165 180.967 343.67 180.295 343.838 179.566C343.894 179.286 343.221 178.893 342.829 178.501C342.436 179.173 342.044 179.902 341.708 180.575ZM1073.44 22.5368C1077.7 22.5368 1081.91 22.5368 1086 22.0883C1086.5 24.1066 1086.28 26.5733 1089.08 24.4429C1088.24 23.7141 1087.34 22.9853 1086 22.0883C1086.67 19.9019 1083.76 19.3413 1083.08 17.6034V11.3245C1084.65 9.75475 1086.17 8.24108 1087.68 6.72741C1088.8 7.73653 1089.92 8.74564 1091.04 9.69869C1091.77 8.96988 1092.56 8.18502 1093.4 7.34409C1096.76 5.83042 1100.4 6.67135 1103.99 6.83954C1104.78 7.6244 1105.51 8.35321 1106.51 9.36232C1107.92 8.46533 1109.43 7.51228 1111.62 6.1668C1113.02 7.06378 1114.64 8.12896 1117.61 9.979H1145.3C1146.59 11.2684 1147.32 11.9972 1148.16 12.8381H1167.11C1168.29 13.9594 1169.41 15.0246 1171.2 16.6503C1173.05 15.5852 1175.12 14.4079 1177.26 13.2306C1177.87 13.8473 1178.6 14.5761 1179.95 15.9215H1192.67C1193.96 17.211 1194.8 18.6686 1195.47 18.6125C1201.25 18.108 1205.51 23.602 1212.29 22.3126C1213.91 24.3869 1215.82 26.9097 1217.67 29.3764C1219.41 27.8066 1220.53 26.7975 1221.65 25.7884C1223.16 27.3021 1224.68 28.8158 1226.25 30.3855V37.9538C1229.22 40.3645 1232.86 43.2797 1236 45.8585C1235.72 47.9328 1235.61 48.9419 1235.44 49.951C1234.54 50.3435 1233.65 50.792 1232.75 51.1283C1232.24 51.2965 1231.35 51.3526 1231.24 51.1283C1229.33 47.5964 1224.51 48.7177 1221.99 45.0737H1208.7C1206.12 39.2432 1199 44.0085 1196.43 38.6826H1178.6C1175.24 37.8417 1174.34 34.0856 1170.7 35.375C1169.8 36.2159 1168.62 37.225 1167.39 38.2902C1166.32 37.3371 1165.2 36.272 1164.03 35.2068H1148.27C1147.1 34.1416 1145.98 33.1325 1144.97 32.2355C1143.79 33.2446 1142.67 34.1416 1141.66 35.0386C1140.71 34.0856 1139.98 33.3568 1138.69 32.0673H1094.13C1092.84 30.7779 1092.11 30.0491 1091.16 29.0961C1090.09 29.9931 1089.03 30.89 1087.74 31.9552H1071.93C1070.98 31.0582 1069.85 30.0491 1068.68 28.9839C1067.56 29.9931 1066.44 31.0582 1065.37 32.0113H1059.04C1057.47 30.4415 1055.95 28.9279 1054.5 27.4703C1056.74 23.9384 1060.16 26.1809 1063.02 25.8445C1066.1 25.452 1069.24 25.7324 1072.15 25.7324C1072.71 24.3308 1073.11 23.4338 1073.44 22.5368ZM1129.33 15.9776C1126.86 18.2201 1126.86 20.3504 1129.1 22.4808C1130.51 20.6868 1132.92 19.7337 1133.42 16.7064C1131.96 16.4261 1130.56 16.2019 1129.27 15.9215L1129.33 15.9776ZM1095.3 18.7246C1095.3 18.0519 1095.25 17.3792 1095.19 16.7064C1093.79 16.5382 1092.39 16.2579 1090.93 16.2019C1090.59 16.2019 1089.87 16.9867 1089.92 17.211C1090.15 17.9398 1090.59 19.1731 1091.04 19.2292C1092.44 19.2853 1093.85 18.9489 1095.25 18.7246H1095.3ZM1028.88 22.5368C1027.31 22.5368 1025.74 22.5368 1024.11 22.5368C1022.1 17.1549 1018.68 12.9503 1013.58 9.58656C1012.4 10.0351 1011.05 10.5396 1009.71 11.0442C1010.27 13.8473 1008.7 16.5943 1010.77 18.8368C1012.23 19.2292 1013.63 19.5656 1015.09 19.958C1016.21 22.5929 1016.77 25.5642 1019.07 27.5824C1017.56 29.0961 1016.1 30.5537 1014.59 32.0673H992.556C990.762 34.9825 986.782 34.8144 984.54 37.169C985.269 37.8417 985.661 38.4584 986.053 38.4584C990.257 38.5144 994.461 38.4584 998.553 38.4584C999.787 37.3371 1000.91 36.272 1002.03 35.2629H1030.39C1031.63 34.1416 1032.75 33.0764 1033.98 31.9552C1039.19 31.9552 1044.46 31.9552 1049.68 31.9552C1050.07 31.9552 1050.4 31.2825 1050.68 31.0022C1051.52 28.7597 1051.41 26.9097 1049.11 25.7884C1048.11 25.9005 1046.93 25.6763 1046.14 26.1248C1044.85 26.9097 1043.85 28.087 1043.23 28.6476C1036.33 28.6476 1030.06 28.6476 1023.78 28.6476C1023.39 28.6476 1023.05 27.9748 1022.49 27.3581C1024.73 26.349 1026.86 25.3399 1028.99 24.3869C1028.99 23.8263 1028.99 23.2096 1028.93 22.649L1028.88 22.5368ZM732.799 106.854C735.21 104.443 737.452 105.62 739.414 105.284C741.376 104.948 743.674 106.125 745.524 103.602C743.954 101.808 742.329 99.9581 741.432 98.893C738.405 98.893 736.555 98.3324 735.266 99.0051C731.734 100.743 728.427 102.985 725.064 105.116C724.391 105.564 724.111 106.517 723.663 107.302C727.642 109.937 726.69 113.469 725.849 116.833C724.952 118.066 724.223 119.019 723.438 120.084C726.129 121.766 727.586 120.813 729.604 119.86C733.977 117.73 737.9 113.974 743.45 114.758C744.066 114.815 744.851 113.525 745.748 112.684C745.356 111.395 744.907 109.993 744.235 107.807C740.759 109.377 737.676 110.778 733.752 112.572C733.304 109.937 733.024 108.143 732.799 106.798V106.854ZM1039.75 6.8956C1038.46 8.18502 1037.01 9.64263 1035.38 11.2684C1036.33 12.3336 1037.23 13.3988 1038.18 14.4639C1034.6 16.5382 1029.89 17.4352 1028.88 22.5368C1031.51 22.5368 1034.09 22.5368 1036.73 22.5368C1037.85 21.5277 1038.97 20.4625 1040.03 19.4534C1041.15 20.5186 1042.33 21.5277 1043.34 22.4808C1049.79 22.4808 1056.07 22.4808 1062.34 22.4808C1062.74 22.4808 1063.07 21.808 1063.46 21.4156C1061.89 18.6125 1060.38 15.7534 1058.87 13.0063C1057.69 13.1185 1056.68 13.2306 1055.39 13.3427C1054.78 15.0246 1054.16 16.8746 1053.43 18.8928C1050.52 17.4913 1047.66 16.0337 1044.85 14.6882V9.81081C1043.17 8.85776 1041.55 7.90471 1039.81 6.8956H1039.75ZM991.435 19.0049C990.594 16.4822 990.033 14.6882 989.473 13.0063C986.95 13.0063 984.876 13.0063 982.746 13.0063C981.401 14.8564 978.766 15.7534 978.542 18.5004C980.056 19.958 981.569 21.3595 982.802 22.4808C985.605 23.0414 988.408 21.4717 990.426 23.9384C989.192 25.396 988.632 26.6854 988.464 28.4794C992.443 28.9279 996.423 29.8249 1000.8 27.19C999.45 24.5551 998.217 21.9762 996.984 19.5095C995.022 19.3413 993.06 19.1731 991.435 19.0049ZM809.146 72.7121C809.426 74.8425 809.426 76.9168 812.397 76.6925C812.733 74.7864 811.556 72.6561 814.022 70.3015H828.316C826.691 66.9938 825.009 63.6862 823.215 60.0422C817.049 63.1816 811.556 65.9287 806.063 68.7878C805.838 68.8999 806.063 69.7409 806.063 70.3015C808.024 69.9651 808.977 71.1424 809.202 72.7121H809.146ZM798.159 70.3015C797.038 71.3666 795.917 72.4318 794.796 73.497C792.722 73.497 790.648 73.497 788.518 73.497C786.444 77.4213 780.726 75.9637 778.708 80.0562C778.372 80.729 778.204 81.5138 777.755 82.6351H787.733C788.461 81.4017 790.031 78.7107 791.601 76.0758C797.991 78.3183 801.186 72.8242 805.95 70.3015H798.103H798.159ZM629.435 130.736C628.202 131.857 627.081 132.922 626.128 133.819C623.437 134.492 620.578 132.754 618.504 135.277C618.392 135.389 618.841 136.006 619.065 136.51C621.924 137.015 624.839 137.52 627.641 138.024V141.836C626.632 142.901 625.623 144.079 623.942 145.873C626.296 146.209 628.09 146.433 630.22 146.714C632.014 142.229 628.987 137.576 632.182 134.156C633.807 133.483 636.386 134.941 636.778 131.521C634.48 129.951 631.733 131.129 629.323 130.736H629.435ZM471.25 190.834C472.427 187.527 473.324 185.06 474.893 180.855C471.418 182.93 468.391 180.183 465.7 183.042C465.588 184.051 465.14 185.284 465.476 186.013C466.149 187.358 467.326 188.424 468.503 189.769C466.429 190.722 464.299 191.731 462.001 192.74C471.137 195.039 472.483 195.039 478.088 192.74C478.256 192.684 478.088 191.731 478.088 191.339C476.126 191.171 474.164 191.002 471.193 190.722L471.25 190.834ZM1079.94 17.0988C1078.94 15.1927 1081.12 12.2775 1078.6 10.1472C1075.01 13.3427 1069.01 13.0624 1066.94 18.9489C1067.33 20.0141 1067.89 21.3595 1068.4 22.5368H1073.44C1072.88 17.4352 1078.99 20.855 1079.94 17.0988ZM603.258 136.51C602.529 135.782 601.744 134.997 601.016 134.268C599.11 135.613 597.148 136.847 596.475 139.314C596.924 139.706 597.316 140.323 597.708 140.323C601.912 140.379 606.172 140.323 610.32 140.323C611.89 138.753 613.404 137.239 615.365 135.277C610.04 132.306 606.845 135.277 603.314 136.454L603.258 136.51ZM973.161 41.5978C974.562 41.71 976.02 41.2615 978.15 40.9812C977.701 38.6826 977.365 36.9447 977.029 35.3189C974.226 35.3189 972.096 35.3189 970.022 35.3189C968.901 36.3841 967.78 37.4493 966.658 38.5144C965.369 39.3554 962.342 37.1129 962.567 40.7569C965.986 42.607 969.629 41.4297 973.161 41.6539V41.5978ZM828.092 71.8151C827.812 72.9924 825.85 73.8334 824.953 74.5622C825.682 77.6456 824 80.4486 826.298 82.579C827.307 82.6911 828.316 82.8593 830.11 83.0836C831.511 81.7941 833.249 80.1683 834.426 79.1032C832.576 75.4031 831.231 72.8242 829.942 70.3015C828.316 69.7409 828.428 70.4136 828.148 71.8151H828.092ZM901.243 30.2173C901.579 32.0113 901.916 33.4128 902.196 34.8144C906.624 35.0947 910.66 36.272 914.304 33.7492V30.0491C910.044 28.1991 905.783 28.1991 901.299 30.2173H901.243ZM875.514 59.2012C873.944 57.2951 872.655 55.7815 872.375 55.4451C869.965 56.7906 867.722 57.9679 866.489 58.6406C866.489 62.3968 866.994 64.1347 871.646 63.8544C872.151 61.7801 875.402 61.4437 875.514 59.2012ZM540.645 169.082C540.028 169.082 539.468 170.204 538.907 170.82C540.869 172.222 541.822 174.913 544.569 175.361C549.782 175.473 547.876 171.605 548.212 168.97C545.69 168.97 543.167 168.858 540.645 169.026V169.082ZM917.387 27.0778C917.667 28.6476 917.947 30.3855 918.34 32.628C920.077 31.0022 921.142 29.937 922.207 28.9279C923.833 28.4794 926.355 30.0491 926.467 26.7415C923.609 25.1717 920.806 25.1717 917.387 27.0778ZM995.975 16.5382C997.488 17.0428 996.087 20.0701 998.666 19.3413C999.955 17.4352 1002.7 16.5943 1002.76 13.3427H993.172C994.686 15.1367 995.19 16.2579 995.975 16.5382ZM118.947 6.05467C120.405 6.33498 121.806 6.55923 123.544 6.8956C124.104 4.42888 127.412 4.14857 127.524 0.840927C126.066 0.560618 124.665 0.336371 122.927 0C122.367 2.46672 119.06 2.74703 118.947 6.05467ZM491.093 177.828C490.7 175.642 490.364 173.848 489.972 171.885C487.842 172.278 486.44 172.558 484.815 172.895V179.061C487.617 178.557 489.019 178.276 491.093 177.884V177.828ZM964.977 20.6307C961.726 18.5004 958.643 18.164 953.99 22.4808C958.923 22.5929 962.585 21.9762 964.977 20.6307ZM936.501 24.1066C939.752 26.7975 942.891 26.7975 946.143 24.1066C942.891 21.4156 939.752 21.4156 936.501 24.1066ZM818.787 83.3078C818.395 80.5047 819.964 78.3183 816.881 76.6365C815.424 76.6365 813.91 76.6365 812.397 76.6365C812.845 79.7198 815.143 81.2335 818.787 83.3078ZM609.648 144.023C608.19 145.929 608.078 147.667 610.264 149.965C611.666 149.685 613.46 149.349 617.664 148.508C612.843 147.442 612.563 144.135 609.648 144.079V144.023ZM230.384 154.002C230.888 152.656 233.691 154.002 233.018 151.535C231.112 149.18 229.094 149.18 226.74 151.311C226.852 152.544 226.964 153.89 227.189 157.253C229.038 155.403 230.103 154.787 230.384 153.946V154.002ZM553.986 150.806C552.136 149.405 550.398 149.293 548.1 151.423C548.38 152.824 548.717 154.618 549.221 157.029C551.071 154.338 553.65 153.441 553.986 150.806ZM219.733 174.857C219.902 173.455 220.182 172.054 220.238 170.596C220.238 170.26 219.453 169.531 219.229 169.587C218.5 169.811 217.267 170.26 217.211 170.708C217.155 172.11 217.491 173.511 217.715 174.913L219.733 174.801V174.857ZM365.643 150.021C364.69 150.47 364.242 152.04 363.513 153.105C364.97 153.105 366.54 153.497 367.773 152.993C368.726 152.544 369.174 150.974 369.903 149.909C368.446 149.909 366.876 149.517 365.643 150.021ZM682.406 123.84C683.808 124.009 685.209 124.289 686.667 124.345C687.003 124.345 687.732 123.56 687.676 123.336C687.451 122.607 687.003 121.374 686.555 121.318C685.153 121.262 683.752 121.598 682.35 121.822C682.35 122.495 682.407 123.168 682.463 123.84H682.406ZM264.857 95.7535C262.895 95.4171 261.886 96.5944 261.718 98.1642C261.494 100.295 261.83 102.369 264.857 102.145V95.7535ZM859.595 60.2104C859.763 58.8088 860.043 57.4073 860.099 55.9497C860.099 55.6133 859.314 54.8845 859.09 54.9405C858.361 55.1648 857.128 55.6133 857.072 56.0618C857.016 57.4633 857.352 58.8649 857.577 60.2664C858.249 60.2664 858.922 60.2103 859.595 60.1543V60.2104ZM841.04 55.9497C838.91 53.6511 836.78 53.6511 834.65 55.9497C836.78 58.2482 838.91 58.2482 841.04 55.9497ZM892.386 34.1416C894.236 35.8795 896.03 35.7674 898.608 33.6931C895.694 31.6188 893.676 30.7219 892.386 34.1416ZM1064.25 8.68958C1066.1 10.4275 1067.89 10.3154 1070.47 8.24108C1067.56 6.1668 1065.54 5.26981 1064.25 8.68958ZM1046.65 6.8956C1045.92 7.73653 1045.19 8.63351 1043.9 10.1472C1046.37 9.41838 1048.83 9.69869 1046.65 6.8956ZM140.697 11.3805C139.968 11.0442 139.295 10.5396 138.567 10.3714C138.286 10.3154 137.894 10.9881 137.501 11.3805C138.174 11.773 138.903 12.1654 139.576 12.5018C140.024 12.0533 140.36 11.7169 140.697 11.3805ZM953.766 25.452C954.495 24.6111 955.223 23.7141 956.513 22.2005C954.046 22.9293 951.58 22.649 953.766 25.452ZM1011.33 22.5368C1011 23.2656 1010.49 23.9384 1010.32 24.6672C1010.27 24.9475 1010.94 25.3399 1011.33 25.7324C1011.73 25.0596 1012.12 24.3308 1012.45 23.6581C1012.01 23.2096 1011.67 22.8732 1011.33 22.5368ZM950.851 32.0673C950.515 32.7961 950.01 33.4689 949.842 34.1977C949.786 34.478 950.459 34.8704 950.851 35.2629C951.244 34.5901 951.636 33.8613 951.972 33.1886C951.524 32.7401 951.187 32.4037 950.851 32.0673ZM927.589 39.5236C927.757 40.2524 928.205 40.9812 928.598 41.6539C928.934 41.3175 929.663 40.869 929.607 40.5887C929.438 39.8599 928.99 39.1311 928.598 38.4584C928.261 38.7948 927.532 39.2432 927.589 39.5236ZM916.153 45.1297C915.425 45.9707 914.696 46.8676 913.407 48.3813C915.873 47.6525 918.34 47.9328 916.153 45.1297ZM912.398 50.9041C913.127 50.0632 913.855 49.1662 915.144 47.6525C912.678 48.3813 910.212 48.101 912.398 50.9041ZM847.711 65.1999C848.552 65.9287 849.449 66.6575 850.962 67.9469C850.233 65.4802 850.514 63.0134 847.711 65.1999ZM834.706 68.6757C835.435 69.012 836.108 69.5166 836.836 69.6848C837.117 69.7409 837.509 69.0681 837.901 68.6757C837.229 68.2832 836.5 67.8908 835.827 67.5544C835.379 68.0029 835.043 68.3393 834.706 68.6757ZM853.485 69.0121C852.644 68.2833 851.747 67.5544 850.233 66.265C850.962 68.7317 850.682 71.1985 853.485 69.0121ZM769.403 89.4185C769.739 88.6897 770.244 88.017 770.412 87.2882C770.468 87.0079 769.795 86.6154 769.403 86.223C769.011 86.8958 768.618 87.6246 768.282 88.2973C768.73 88.7458 769.067 89.0822 769.403 89.4185ZM796.477 87.7927C796.814 88.1291 797.262 88.8579 797.542 88.8019C798.271 88.6337 799 88.1852 799.672 87.7927C799.336 87.4564 798.944 87.0639 798.551 86.6715C797.879 87.0639 797.206 87.4003 796.477 87.7927ZM759.874 92.558C760.21 92.2216 760.939 91.7731 760.883 91.4928C760.715 90.764 760.266 90.0352 759.874 89.3625C759.537 89.6988 759.145 90.0913 758.753 90.4837C759.145 91.1564 759.481 91.8292 759.874 92.558ZM791.713 92.558C792.049 91.8292 792.553 91.1564 792.722 90.4276C792.778 90.1473 792.105 89.7549 791.713 89.3625C791.32 90.0352 790.928 90.764 790.591 91.4368C791.04 91.8853 791.376 92.2216 791.713 92.558ZM708.92 114.871C709.257 114.142 709.761 113.469 709.929 112.74C709.985 112.46 709.313 112.067 708.92 111.675C708.528 112.348 708.135 113.077 707.799 113.749C708.248 114.198 708.584 114.534 708.92 114.871ZM637.339 138.753C636.61 138.417 635.937 137.912 635.209 137.744C634.928 137.688 634.536 138.36 634.144 138.753C634.816 139.145 635.545 139.538 636.218 139.874C636.666 139.426 637.002 139.089 637.339 138.753ZM371.809 146.994C371.08 147.835 370.352 148.732 369.062 150.246C371.529 149.517 373.995 149.797 371.809 146.994ZM578.426 149.909C578.089 150.246 577.361 150.694 577.417 150.974C577.585 151.703 578.033 152.432 578.426 153.105C578.762 152.768 579.154 152.376 579.547 151.983C579.154 151.311 578.818 150.638 578.426 149.909ZM550.062 166.111C549.333 166.952 548.605 167.849 547.315 169.363C549.782 168.634 552.248 168.914 550.062 166.111ZM525.903 176.931C525.174 176.595 524.501 176.09 523.773 175.922C523.492 175.866 523.1 176.539 522.707 176.931C523.38 177.323 524.109 177.716 524.781 178.052C525.23 177.604 525.566 177.267 525.903 176.931ZM455.835 189.713C456.171 190.049 456.619 190.778 456.9 190.722C457.628 190.554 458.357 190.105 459.03 189.713C458.693 189.377 458.301 188.984 457.909 188.592C457.236 188.984 456.563 189.321 455.835 189.713ZM480.05 188.368C479.321 189.208 478.593 190.105 477.303 191.619C479.77 190.89 482.236 191.171 480.05 188.368ZM713.685 110.105C714.021 110.442 714.47 111.171 714.75 111.114C715.479 110.946 716.207 110.498 716.88 110.105C716.544 109.769 716.151 109.377 715.759 108.984C715.086 109.377 714.414 109.713 713.685 110.105Z" fill="#F0F7FF"/>
</svg>
